<svg xmlns="http://www.w3.org/2000/svg" xmlns:xlink="http://www.w3.org/1999/xlink" width="84" zoomAndPan="magnify" viewBox="0 0 63 62.999997" height="84" preserveAspectRatio="xMidYMid meet" version="1.0"><defs><linearGradient x1="0" gradientTransform="matrix(0.75, 0, 0, 0.75, 0.0000015, -0.000001)" y1="42" x2="83.999996" gradientUnits="userSpaceOnUse" y2="42" id="9c01d8dfb6"><stop stop-opacity="1" stop-color="rgb(80.39856%, 100%, 84.698486%)" offset="0"/><stop stop-opacity="1" stop-color="rgb(80.311584%, 99.891663%, 84.757996%)" offset="0.0078125"/><stop stop-opacity="1" stop-color="rgb(80.136108%, 99.676514%, 84.87854%)" offset="0.015625"/><stop stop-opacity="1" stop-color="rgb(79.960632%, 99.461365%, 84.997559%)" offset="0.0234375"/><stop stop-opacity="1" stop-color="rgb(79.786682%, 99.246216%, 85.116577%)" offset="0.03125"/><stop stop-opacity="1" stop-color="rgb(79.611206%, 99.032593%, 85.237122%)" offset="0.0390625"/><stop stop-opacity="1" stop-color="rgb(79.43573%, 98.817444%, 85.35614%)" offset="0.046875"/><stop stop-opacity="1" stop-color="rgb(79.26178%, 98.602295%, 85.476685%)" offset="0.0546875"/><stop stop-opacity="1" stop-color="rgb(79.086304%, 98.387146%, 85.595703%)" offset="0.0625"/><stop stop-opacity="1" stop-color="rgb(78.910828%, 98.171997%, 85.714722%)" offset="0.0703125"/><stop stop-opacity="1" stop-color="rgb(78.736877%, 97.958374%, 85.835266%)" offset="0.078125"/><stop stop-opacity="1" stop-color="rgb(78.561401%, 97.743225%, 85.954285%)" offset="0.0859375"/><stop stop-opacity="1" stop-color="rgb(78.385925%, 97.528076%, 86.073303%)" offset="0.09375"/><stop stop-opacity="1" stop-color="rgb(78.211975%, 97.312927%, 86.193848%)" offset="0.101562"/><stop stop-opacity="1" stop-color="rgb(78.036499%, 97.097778%, 86.312866%)" offset="0.109375"/><stop stop-opacity="1" stop-color="rgb(77.861023%, 96.884155%, 86.431885%)" offset="0.117188"/><stop stop-opacity="1" stop-color="rgb(77.685547%, 96.669006%, 86.552429%)" offset="0.125"/><stop stop-opacity="1" stop-color="rgb(77.511597%, 96.453857%, 86.671448%)" offset="0.132812"/><stop stop-opacity="1" stop-color="rgb(77.336121%, 96.238708%, 86.790466%)" offset="0.140625"/><stop stop-opacity="1" stop-color="rgb(77.160645%, 96.02356%, 86.911011%)" offset="0.148438"/><stop stop-opacity="1" stop-color="rgb(76.986694%, 95.809937%, 87.030029%)" offset="0.15625"/><stop stop-opacity="1" stop-color="rgb(76.811218%, 95.594788%, 87.149048%)" offset="0.164062"/><stop stop-opacity="1" stop-color="rgb(76.635742%, 95.379639%, 87.269592%)" offset="0.171875"/><stop stop-opacity="1" stop-color="rgb(76.461792%, 95.16449%, 87.388611%)" offset="0.179688"/><stop stop-opacity="1" stop-color="rgb(76.286316%, 94.949341%, 87.507629%)" offset="0.1875"/><stop stop-opacity="1" stop-color="rgb(76.11084%, 94.735718%, 87.628174%)" offset="0.195312"/><stop stop-opacity="1" stop-color="rgb(75.93689%, 94.520569%, 87.747192%)" offset="0.203125"/><stop stop-opacity="1" stop-color="rgb(75.761414%, 94.30542%, 87.866211%)" offset="0.210938"/><stop stop-opacity="1" stop-color="rgb(75.585938%, 94.090271%, 87.986755%)" offset="0.21875"/><stop stop-opacity="1" stop-color="rgb(75.410461%, 93.875122%, 88.105774%)" offset="0.226562"/><stop stop-opacity="1" stop-color="rgb(75.236511%, 93.661499%, 88.224792%)" offset="0.234375"/><stop stop-opacity="1" stop-color="rgb(75.061035%, 93.44635%, 88.345337%)" offset="0.242188"/><stop stop-opacity="1" stop-color="rgb(74.885559%, 93.231201%, 88.464355%)" offset="0.25"/><stop stop-opacity="1" stop-color="rgb(74.711609%, 93.016052%, 88.583374%)" offset="0.257812"/><stop stop-opacity="1" stop-color="rgb(74.536133%, 92.800903%, 88.703918%)" offset="0.265625"/><stop stop-opacity="1" stop-color="rgb(74.360657%, 92.58728%, 88.822937%)" offset="0.273438"/><stop stop-opacity="1" stop-color="rgb(74.186707%, 92.372131%, 88.941956%)" offset="0.28125"/><stop stop-opacity="1" stop-color="rgb(74.01123%, 92.156982%, 89.0625%)" offset="0.289062"/><stop stop-opacity="1" stop-color="rgb(73.835754%, 91.941833%, 89.181519%)" offset="0.296875"/><stop stop-opacity="1" stop-color="rgb(73.661804%, 91.726685%, 89.300537%)" offset="0.304688"/><stop stop-opacity="1" stop-color="rgb(73.486328%, 91.513062%, 89.421082%)" offset="0.3125"/><stop stop-opacity="1" stop-color="rgb(73.310852%, 91.297913%, 89.5401%)" offset="0.320312"/><stop stop-opacity="1" stop-color="rgb(73.136902%, 91.082764%, 89.659119%)" offset="0.328125"/><stop stop-opacity="1" stop-color="rgb(72.961426%, 90.867615%, 89.779663%)" offset="0.335938"/><stop stop-opacity="1" stop-color="rgb(72.78595%, 90.652466%, 89.898682%)" offset="0.34375"/><stop stop-opacity="1" stop-color="rgb(72.610474%, 90.438843%, 90.0177%)" offset="0.351562"/><stop stop-opacity="1" stop-color="rgb(72.436523%, 90.223694%, 90.138245%)" offset="0.359375"/><stop stop-opacity="1" stop-color="rgb(72.261047%, 90.008545%, 90.257263%)" offset="0.367188"/><stop stop-opacity="1" stop-color="rgb(72.085571%, 89.793396%, 90.376282%)" offset="0.375"/><stop stop-opacity="1" stop-color="rgb(71.911621%, 89.578247%, 90.496826%)" offset="0.382812"/><stop stop-opacity="1" stop-color="rgb(71.736145%, 89.364624%, 90.615845%)" offset="0.390625"/><stop stop-opacity="1" stop-color="rgb(71.560669%, 89.149475%, 90.734863%)" offset="0.398438"/><stop stop-opacity="1" stop-color="rgb(71.386719%, 88.934326%, 90.855408%)" offset="0.40625"/><stop stop-opacity="1" stop-color="rgb(71.211243%, 88.719177%, 90.974426%)" offset="0.414062"/><stop stop-opacity="1" stop-color="rgb(71.035767%, 88.504028%, 91.093445%)" offset="0.421875"/><stop stop-opacity="1" stop-color="rgb(70.861816%, 88.290405%, 91.213989%)" offset="0.429688"/><stop stop-opacity="1" stop-color="rgb(70.68634%, 88.075256%, 91.333008%)" offset="0.4375"/><stop stop-opacity="1" stop-color="rgb(70.510864%, 87.860107%, 91.452026%)" offset="0.445312"/><stop stop-opacity="1" stop-color="rgb(70.336914%, 87.644958%, 91.572571%)" offset="0.453125"/><stop stop-opacity="1" stop-color="rgb(70.161438%, 87.42981%, 91.691589%)" offset="0.460938"/><stop stop-opacity="1" stop-color="rgb(69.985962%, 87.216187%, 91.810608%)" offset="0.46875"/><stop stop-opacity="1" stop-color="rgb(69.810486%, 87.001038%, 91.931152%)" offset="0.476562"/><stop stop-opacity="1" stop-color="rgb(69.636536%, 86.785889%, 92.050171%)" offset="0.484375"/><stop stop-opacity="1" stop-color="rgb(69.46106%, 86.57074%, 92.169189%)" offset="0.492188"/><stop stop-opacity="1" stop-color="rgb(69.285583%, 86.355591%, 92.289734%)" offset="0.5"/><stop stop-opacity="1" stop-color="rgb(69.111633%, 86.141968%, 92.408752%)" offset="0.507812"/><stop stop-opacity="1" stop-color="rgb(68.936157%, 85.926819%, 92.527771%)" offset="0.515625"/><stop stop-opacity="1" stop-color="rgb(68.760681%, 85.71167%, 92.648315%)" offset="0.523438"/><stop stop-opacity="1" stop-color="rgb(68.586731%, 85.496521%, 92.767334%)" offset="0.53125"/><stop stop-opacity="1" stop-color="rgb(68.411255%, 85.281372%, 92.886353%)" offset="0.539062"/><stop stop-opacity="1" stop-color="rgb(68.235779%, 85.067749%, 93.006897%)" offset="0.546875"/><stop stop-opacity="1" stop-color="rgb(68.061829%, 84.8526%, 93.125916%)" offset="0.554688"/><stop stop-opacity="1" stop-color="rgb(67.886353%, 84.637451%, 93.244934%)" offset="0.5625"/><stop stop-opacity="1" stop-color="rgb(67.710876%, 84.422302%, 93.365479%)" offset="0.570312"/><stop stop-opacity="1" stop-color="rgb(67.536926%, 84.207153%, 93.484497%)" offset="0.578125"/><stop stop-opacity="1" stop-color="rgb(67.36145%, 83.99353%, 93.603516%)" offset="0.585938"/><stop stop-opacity="1" stop-color="rgb(67.185974%, 83.778381%, 93.72406%)" offset="0.59375"/><stop stop-opacity="1" stop-color="rgb(67.010498%, 83.563232%, 93.843079%)" offset="0.601562"/><stop stop-opacity="1" stop-color="rgb(66.836548%, 83.348083%, 93.962097%)" offset="0.609375"/><stop stop-opacity="1" stop-color="rgb(66.661072%, 83.132935%, 94.082642%)" offset="0.617188"/><stop stop-opacity="1" stop-color="rgb(66.485596%, 82.919312%, 94.20166%)" offset="0.625"/><stop stop-opacity="1" stop-color="rgb(66.311646%, 82.704163%, 94.320679%)" offset="0.632812"/><stop stop-opacity="1" stop-color="rgb(66.136169%, 82.489014%, 94.441223%)" offset="0.640625"/><stop stop-opacity="1" stop-color="rgb(65.960693%, 82.273865%, 94.560242%)" offset="0.648438"/><stop stop-opacity="1" stop-color="rgb(65.786743%, 82.058716%, 94.67926%)" offset="0.65625"/><stop stop-opacity="1" stop-color="rgb(65.611267%, 81.845093%, 94.799805%)" offset="0.664062"/><stop stop-opacity="1" stop-color="rgb(65.435791%, 81.629944%, 94.918823%)" offset="0.671875"/><stop stop-opacity="1" stop-color="rgb(65.261841%, 81.414795%, 95.037842%)" offset="0.679688"/><stop stop-opacity="1" stop-color="rgb(65.086365%, 81.199646%, 95.158386%)" offset="0.6875"/><stop stop-opacity="1" stop-color="rgb(64.910889%, 80.984497%, 95.277405%)" offset="0.695312"/><stop stop-opacity="1" stop-color="rgb(64.736938%, 80.770874%, 95.396423%)" offset="0.703125"/><stop stop-opacity="1" stop-color="rgb(64.561462%, 80.555725%, 95.516968%)" offset="0.710938"/><stop stop-opacity="1" stop-color="rgb(64.385986%, 80.340576%, 95.635986%)" offset="0.71875"/><stop stop-opacity="1" stop-color="rgb(64.21051%, 80.125427%, 95.755005%)" offset="0.726562"/><stop stop-opacity="1" stop-color="rgb(64.03656%, 79.910278%, 95.875549%)" offset="0.734375"/><stop stop-opacity="1" stop-color="rgb(63.861084%, 79.696655%, 95.994568%)" offset="0.742188"/><stop stop-opacity="1" stop-color="rgb(63.685608%, 79.481506%, 96.113586%)" offset="0.75"/><stop stop-opacity="1" stop-color="rgb(63.511658%, 79.266357%, 96.234131%)" offset="0.757812"/><stop stop-opacity="1" stop-color="rgb(63.336182%, 79.051208%, 96.353149%)" offset="0.765625"/><stop stop-opacity="1" stop-color="rgb(63.160706%, 78.83606%, 96.472168%)" offset="0.773438"/><stop stop-opacity="1" stop-color="rgb(62.986755%, 78.622437%, 96.592712%)" offset="0.78125"/><stop stop-opacity="1" stop-color="rgb(62.811279%, 78.407288%, 96.711731%)" offset="0.789062"/><stop stop-opacity="1" stop-color="rgb(62.635803%, 78.192139%, 96.83075%)" offset="0.796875"/><stop stop-opacity="1" stop-color="rgb(62.461853%, 77.97699%, 96.951294%)" offset="0.804688"/><stop stop-opacity="1" stop-color="rgb(62.286377%, 77.761841%, 97.070312%)" offset="0.8125"/><stop stop-opacity="1" stop-color="rgb(62.110901%, 77.548218%, 97.189331%)" offset="0.820312"/><stop stop-opacity="1" stop-color="rgb(61.936951%, 77.333069%, 97.309875%)" offset="0.828125"/><stop stop-opacity="1" stop-color="rgb(61.761475%, 77.11792%, 97.428894%)" offset="0.835938"/><stop stop-opacity="1" stop-color="rgb(61.585999%, 76.902771%, 97.547913%)" offset="0.84375"/><stop stop-opacity="1" stop-color="rgb(61.410522%, 76.687622%, 97.668457%)" offset="0.851562"/><stop stop-opacity="1" stop-color="rgb(61.236572%, 76.473999%, 97.787476%)" offset="0.859375"/><stop stop-opacity="1" stop-color="rgb(61.061096%, 76.25885%, 97.906494%)" offset="0.867188"/><stop stop-opacity="1" stop-color="rgb(60.88562%, 76.043701%, 98.027039%)" offset="0.875"/><stop stop-opacity="1" stop-color="rgb(60.71167%, 75.828552%, 98.146057%)" offset="0.882812"/><stop stop-opacity="1" stop-color="rgb(60.536194%, 75.613403%, 98.265076%)" offset="0.890625"/><stop stop-opacity="1" stop-color="rgb(60.360718%, 75.39978%, 98.38562%)" offset="0.898438"/><stop stop-opacity="1" stop-color="rgb(60.186768%, 75.184631%, 98.504639%)" offset="0.90625"/><stop stop-opacity="1" stop-color="rgb(60.011292%, 74.969482%, 98.623657%)" offset="0.914062"/><stop stop-opacity="1" stop-color="rgb(59.835815%, 74.754333%, 98.744202%)" offset="0.921875"/><stop stop-opacity="1" stop-color="rgb(59.661865%, 74.539185%, 98.86322%)" offset="0.929688"/><stop stop-opacity="1" stop-color="rgb(59.486389%, 74.325562%, 98.982239%)" offset="0.9375"/><stop stop-opacity="1" stop-color="rgb(59.310913%, 74.110413%, 99.102783%)" offset="0.945312"/><stop stop-opacity="1" stop-color="rgb(59.136963%, 73.895264%, 99.221802%)" offset="0.953125"/><stop stop-opacity="1" stop-color="rgb(58.961487%, 73.680115%, 99.34082%)" offset="0.960938"/><stop stop-opacity="1" stop-color="rgb(58.786011%, 73.464966%, 99.461365%)" offset="0.96875"/><stop stop-opacity="1" stop-color="rgb(58.610535%, 73.251343%, 99.580383%)" offset="0.976562"/><stop stop-opacity="1" stop-color="rgb(58.436584%, 73.036194%, 99.699402%)" offset="0.984375"/><stop stop-opacity="1" stop-color="rgb(58.261108%, 72.821045%, 99.819946%)" offset="0.992188"/><stop stop-opacity="1" stop-color="rgb(58.085632%, 72.605896%, 99.938965%)" offset="1"/></linearGradient><clipPath id="87adc99339"><path d="M 10.039062 11.765625 L 51.289062 11.765625 L 51.289062 51.515625 L 10.039062 51.515625 Z M 10.039062 11.765625 " clip-rule="nonzero"/></clipPath><clipPath id="267ec9dad8"><path d="M 10.039062 27 L 14 27 L 14 36 L 10.039062 36 Z M 10.039062 27 " clip-rule="nonzero"/></clipPath><clipPath id="3c68046112"><path d="M 10.039062 12 L 51 12 L 51 51.515625 L 10.039062 51.515625 Z M 10.039062 12 " clip-rule="nonzero"/></clipPath></defs><rect x="-6.3" width="75.6" fill="#ffffff" y="-6.3" height="75.599996" fill-opacity="1"/><rect x="-6.3" fill="url(#9c01d8dfb6)" width="75.6" y="-6.3" height="75.599996"/><path fill="#263151" d="M 20.894531 16.585938 C 20.59375 16.371094 20.277344 16.339844 19.941406 16.492188 C 19.792969 16.558594 19.640625 16.625 19.488281 16.6875 C 18.863281 16.957031 18.21875 17.238281 17.625 17.625 C 16.945312 18.070312 16.351562 18.628906 15.832031 19.121094 C 15.574219 19.351562 15.484375 19.636719 15.570312 19.972656 C 15.660156 20.328125 15.886719 20.558594 16.242188 20.664062 C 16.324219 20.6875 16.410156 20.703125 16.5 20.703125 C 16.746094 20.699219 16.957031 20.613281 17.136719 20.445312 L 17.171875 20.40625 C 17.707031 19.90625 18.210938 19.429688 18.804688 19.074219 C 19.273438 18.792969 19.808594 18.5625 20.324219 18.339844 C 20.484375 18.269531 20.640625 18.203125 20.796875 18.132812 C 21.105469 18.003906 21.277344 17.777344 21.3125 17.449219 C 21.335938 17.082031 21.195312 16.796875 20.894531 16.585938 Z M 20.894531 16.585938 " fill-opacity="1" fill-rule="nonzero"/><path fill="#263151" d="M 13.035156 19.125 C 13.367188 19.175781 13.632812 19.066406 13.828125 18.800781 C 14.714844 17.683594 15.757812 16.738281 16.960938 15.960938 C 18.164062 15.1875 19.464844 14.621094 20.855469 14.273438 C 21.195312 14.195312 21.414062 13.992188 21.507812 13.65625 C 21.605469 13.300781 21.523438 12.992188 21.265625 12.726562 C 21.015625 12.476562 20.722656 12.394531 20.378906 12.488281 C 18.808594 12.886719 17.34375 13.519531 15.984375 14.390625 C 14.625 15.261719 13.441406 16.324219 12.433594 17.578125 C 12.199219 17.867188 12.152344 18.179688 12.292969 18.519531 C 12.425781 18.859375 12.671875 19.0625 13.035156 19.125 Z M 13.035156 19.125 " fill-opacity="1" fill-rule="nonzero"/><g clip-path="url(#87adc99339)"><path fill="#263151" d="M 49.320312 27.480469 C 49.414062 27.03125 49.539062 26.578125 49.664062 26.136719 L 49.6875 26.042969 C 50.214844 25.902344 50.636719 25.617188 50.953125 25.179688 C 51.339844 24.65625 51.390625 23.976562 51.089844 23.351562 C 51.0625 23.28125 51.03125 23.214844 50.988281 23.152344 C 50.929688 23.066406 50.867188 22.984375 50.796875 22.910156 C 50.605469 22.683594 50.371094 22.511719 50.097656 22.390625 C 50.023438 22.355469 49.949219 22.335938 49.867188 22.324219 C 49.550781 22.226562 49.230469 22.214844 48.90625 22.285156 C 48.582031 22.359375 48.296875 22.503906 48.050781 22.726562 C 47.582031 23.160156 47.363281 23.695312 47.394531 24.332031 C 47.414062 24.792969 47.578125 25.191406 47.894531 25.527344 L 47.871094 25.617188 C 47.800781 25.875 47.726562 26.140625 47.660156 26.40625 L 47.589844 26.394531 C 47.277344 26.335938 46.96875 26.347656 46.660156 26.425781 C 46.0625 25.105469 45.128906 23.832031 43.871094 22.628906 C 43.84375 22.597656 43.816406 22.570312 43.785156 22.542969 C 43.191406 21.984375 42.5625 21.464844 41.902344 20.988281 C 39.003906 18.898438 35.449219 17.6875 31.578125 17.476562 C 31.585938 17.269531 31.589844 17.066406 31.585938 16.863281 C 31.707031 16.820312 31.820312 16.765625 31.933594 16.707031 C 33.15625 16.0625 33.609375 14.433594 32.925781 13.160156 C 32.539062 12.449219 31.949219 12.003906 31.15625 11.824219 C 30.449219 11.660156 29.804688 11.789062 29.222656 12.21875 C 29.214844 12.226562 29.207031 12.234375 29.199219 12.238281 C 28.949219 12.417969 28.734375 12.632812 28.554688 12.882812 C 28.375 13.132812 28.242188 13.402344 28.15625 13.695312 C 28.070312 13.988281 28.035156 14.289062 28.050781 14.59375 C 28.066406 14.898438 28.128906 15.191406 28.246094 15.476562 C 28.523438 16.164062 29.011719 16.628906 29.71875 16.878906 C 29.71875 17.074219 29.71875 17.273438 29.710938 17.476562 C 25.859375 17.695312 22.308594 18.902344 19.425781 20.988281 C 18.765625 21.464844 18.136719 21.980469 17.542969 22.539062 C 17.511719 22.566406 17.480469 22.597656 17.449219 22.628906 C 16.199219 23.828125 15.265625 25.101562 14.667969 26.421875 C 14.566406 26.394531 14.464844 26.378906 14.359375 26.367188 C 14.128906 26.34375 13.894531 26.355469 13.667969 26.40625 C 13.601562 26.140625 13.527344 25.878906 13.457031 25.621094 C 13.449219 25.589844 13.441406 25.558594 13.433594 25.527344 C 13.746094 25.195312 13.910156 24.804688 13.929688 24.351562 C 13.964844 23.710938 13.746094 23.171875 13.277344 22.730469 C 13.035156 22.507812 12.75 22.355469 12.421875 22.285156 C 12.097656 22.210938 11.777344 22.222656 11.457031 22.324219 C 11.378906 22.335938 11.300781 22.355469 11.230469 22.386719 C 10.953125 22.511719 10.714844 22.683594 10.523438 22.914062 C 10.457031 22.988281 10.394531 23.066406 10.339844 23.152344 C 10.296875 23.214844 10.261719 23.285156 10.234375 23.355469 C 9.933594 23.976562 9.988281 24.65625 10.371094 25.179688 C 10.6875 25.617188 11.109375 25.902344 11.636719 26.042969 C 11.644531 26.074219 11.65625 26.105469 11.664062 26.136719 C 11.785156 26.578125 11.910156 27.03125 12.007812 27.480469 C 11.972656 27.519531 11.941406 27.5625 11.910156 27.601562 C 10.644531 29.207031 10.324219 31.347656 10.277344 32.855469 C 10.242188 34 10.378906 35.125 10.6875 36.230469 C 11.023438 37.433594 11.457031 38.773438 12.332031 39.378906 C 12.917969 39.785156 13.558594 39.921875 14.261719 39.785156 C 14.707031 41.449219 15.59375 43.1875 16.84375 44.839844 C 18.742188 47.34375 21.261719 49.253906 24.132812 50.359375 C 26.082031 51.113281 28.265625 51.5 30.628906 51.515625 C 30.640625 51.515625 30.652344 51.515625 30.660156 51.515625 C 30.671875 51.515625 30.683594 51.515625 30.699219 51.515625 C 34.585938 51.492188 38.132812 50.386719 40.953125 48.320312 C 43.25 46.640625 45.007812 44.523438 46.226562 41.96875 C 46.5625 41.265625 46.839844 40.539062 47.054688 39.789062 C 47.457031 39.859375 47.871094 39.851562 48.195312 39.757812 C 49.46875 39.402344 49.933594 38.179688 50.3125 37.199219 L 50.34375 37.117188 C 50.757812 36.015625 50.988281 34.878906 51.035156 33.703125 C 51.132812 31.542969 50.671875 29.535156 49.734375 28.054688 C 49.609375 27.855469 49.472656 27.664062 49.320312 27.480469 Z M 49.320312 27.480469 " fill-opacity="1" fill-rule="nonzero"/></g><path fill="#263151" d="M 41.839844 16.691406 C 41.6875 16.625 41.535156 16.558594 41.382812 16.492188 C 40.832031 16.246094 40.296875 16.550781 40.097656 16.988281 C 39.992188 17.207031 39.984375 17.425781 40.070312 17.652344 C 40.15625 17.878906 40.308594 18.039062 40.535156 18.136719 C 40.691406 18.203125 40.847656 18.273438 41.007812 18.339844 C 41.519531 18.5625 42.054688 18.792969 42.523438 19.078125 C 43.117188 19.433594 43.621094 19.910156 44.152344 20.414062 L 44.191406 20.445312 C 44.367188 20.617188 44.578125 20.703125 44.828125 20.707031 C 45.101562 20.703125 45.332031 20.601562 45.515625 20.402344 C 45.878906 20.027344 45.867188 19.476562 45.492188 19.125 C 44.96875 18.628906 44.375 18.070312 43.695312 17.628906 C 43.109375 17.242188 42.464844 16.960938 41.839844 16.691406 Z M 41.839844 16.691406 " fill-opacity="1" fill-rule="nonzero"/><path fill="#263151" d="M 40.472656 14.273438 C 41.863281 14.625 43.160156 15.1875 44.363281 15.960938 C 45.566406 16.738281 46.613281 17.683594 47.496094 18.800781 C 47.695312 19.066406 47.957031 19.175781 48.289062 19.128906 C 48.652344 19.066406 48.902344 18.863281 49.035156 18.523438 C 49.175781 18.179688 49.128906 17.867188 48.894531 17.578125 C 47.886719 16.324219 46.703125 15.261719 45.34375 14.390625 C 43.984375 13.519531 42.519531 12.886719 40.949219 12.488281 C 40.609375 12.398438 40.3125 12.476562 40.066406 12.726562 C 39.808594 12.992188 39.726562 13.300781 39.820312 13.65625 C 39.914062 13.992188 40.132812 14.195312 40.472656 14.273438 Z M 40.472656 14.273438 " fill-opacity="1" fill-rule="nonzero"/><path fill="#ffffff" d="M 18.144531 23.519531 C 16.660156 24.40625 15.433594 25.875 15.28125 27.578125 C 15.214844 28.316406 15.347656 29.054688 15.445312 29.789062 C 15.679688 31.664062 15.652344 33.53125 15.367188 35.398438 C 15.214844 36.398438 14.988281 37.402344 15.0625 38.414062 C 15.113281 39.046875 15.28125 39.671875 15.492188 40.273438 C 16.050781 41.867188 16.855469 43.324219 17.90625 44.652344 C 18.957031 45.976562 20.195312 47.097656 21.625 48.015625 C 21.710938 48.066406 21.8125 48.125 21.910156 48.105469 C 22 48.089844 22.066406 48.019531 22.128906 47.953125 C 24.277344 45.542969 26.449219 43.105469 28.003906 40.285156 C 28.628906 39.152344 29.164062 37.890625 29.015625 36.605469 C 28.882812 35.46875 28.234375 34.460938 27.601562 33.5 C 25.460938 30.25 23.308594 26.984375 20.683594 24.101562 C 20.140625 23.503906 19.488281 22.878906 18.675781 22.832031 " fill-opacity="1" fill-rule="nonzero"/><path fill="#ffffff" d="M 18.117188 23.472656 C 16.714844 24.339844 15.496094 25.679688 15.253906 27.351562 C 15.097656 28.425781 15.378906 29.515625 15.472656 30.585938 C 15.570312 31.746094 15.570312 32.90625 15.472656 34.0625 C 15.371094 35.246094 15.074219 36.402344 15.003906 37.582031 C 14.945312 38.59375 15.167969 39.550781 15.515625 40.496094 C 16.488281 43.148438 18.089844 45.363281 20.3125 47.140625 C 20.636719 47.398438 20.972656 47.644531 21.320312 47.875 C 21.472656 47.980469 21.710938 48.199219 21.925781 48.160156 C 22.199219 48.105469 22.429688 47.695312 22.59375 47.515625 C 22.960938 47.101562 23.324219 46.683594 23.6875 46.269531 C 24.363281 45.496094 25.023438 44.710938 25.652344 43.898438 C 26.902344 42.285156 28.238281 40.484375 28.851562 38.515625 C 29.476562 36.507812 28.597656 34.914062 27.507812 33.257812 C 26.101562 31.128906 24.691406 28.996094 23.136719 26.96875 C 22.421875 26.039062 21.683594 25.128906 20.898438 24.257812 C 20.28125 23.570312 19.640625 22.894531 18.675781 22.777344 C 18.609375 22.769531 18.609375 22.875 18.675781 22.886719 C 19.773438 23.019531 20.492188 23.949219 21.164062 24.722656 C 21.839844 25.492188 22.496094 26.304688 23.121094 27.125 C 24.277344 28.640625 25.355469 30.214844 26.410156 31.800781 C 27.449219 33.359375 28.996094 35.125 28.984375 37.089844 C 28.972656 39.019531 27.675781 40.882812 26.613281 42.414062 C 25.5 44.015625 24.230469 45.503906 22.9375 46.964844 C 22.730469 47.195312 22.367188 47.777344 22.089844 47.917969 C 21.644531 48.136719 21.242188 47.707031 20.910156 47.464844 C 20.125 46.894531 19.402344 46.253906 18.746094 45.546875 C 17.519531 44.230469 16.558594 42.746094 15.863281 41.09375 C 15.566406 40.378906 15.300781 39.636719 15.175781 38.871094 C 14.976562 37.660156 15.265625 36.472656 15.441406 35.28125 C 15.753906 33.152344 15.632812 31.089844 15.386719 28.964844 C 15.117188 26.636719 16.1875 24.792969 18.171875 23.570312 C 18.230469 23.535156 18.175781 23.441406 18.117188 23.476562 Z M 18.117188 23.472656 " fill-opacity="1" fill-rule="nonzero"/><path fill="#ffffff" d="M 21.816406 47.847656 C 21.8125 48.019531 21.988281 48.132812 22.140625 48.210938 C 23.515625 48.914062 24.914062 49.59375 26.394531 50.023438 C 28.597656 50.660156 30.820312 50.738281 33.0625 50.257812 C 33.226562 50.222656 33.394531 50.179688 33.511719 50.0625 C 33.660156 49.914062 33.679688 49.6875 33.691406 49.480469 C 33.847656 47.007812 33.996094 44.5 33.519531 42.066406 C 33.46875 41.789062 33.382812 41.484375 33.136719 41.34375 C 32.941406 41.226562 32.695312 41.25 32.46875 41.269531 C 30.769531 41.40625 29.074219 41.03125 27.371094 40.949219 C 25.664062 40.867188 23.8125 41.148438 22.605469 42.339844 C 21.421875 43.511719 21.125 45.296875 21.089844 46.957031 " fill-opacity="1" fill-rule="nonzero"/><path fill="#ffffff" d="M 21.765625 47.863281 C 21.890625 48.257812 22.34375 48.375 22.6875 48.550781 C 23.339844 48.875 24.003906 49.195312 24.679688 49.472656 C 25.921875 49.984375 27.210938 50.355469 28.550781 50.515625 C 29.980469 50.6875 31.40625 50.636719 32.820312 50.363281 C 33.160156 50.292969 33.503906 50.25 33.667969 49.917969 C 33.90625 49.429688 33.800781 48.628906 33.828125 48.105469 C 33.910156 46.546875 33.945312 44.980469 33.777344 43.425781 C 33.703125 42.726562 33.761719 41.308594 32.8125 41.210938 C 32.089844 41.132812 31.324219 41.257812 30.589844 41.199219 C 29.78125 41.140625 28.980469 41.027344 28.175781 40.953125 C 26.972656 40.847656 25.746094 40.835938 24.582031 41.171875 C 21.894531 41.949219 21.105469 44.4375 21.035156 46.957031 C 21.035156 46.992188 21.054688 47.011719 21.089844 47.011719 C 21.125 47.011719 21.144531 46.992188 21.144531 46.957031 C 21.203125 44.839844 21.714844 42.558594 23.832031 41.5625 C 25.871094 40.609375 28.179688 41.09375 30.324219 41.285156 C 30.902344 41.339844 31.484375 41.363281 32.066406 41.347656 C 32.445312 41.332031 32.648438 41.285156 33.007812 41.457031 C 33.425781 41.660156 33.441406 41.929688 33.519531 42.355469 C 33.746094 43.613281 33.800781 44.898438 33.789062 46.171875 C 33.78125 46.769531 33.757812 47.367188 33.726562 47.964844 C 33.695312 48.59375 33.820312 49.894531 33.128906 50.1875 C 32.628906 50.398438 31.929688 50.40625 31.398438 50.457031 C 29.4375 50.628906 27.53125 50.390625 25.675781 49.738281 C 25.03125 49.515625 24.40625 49.25 23.789062 48.964844 C 23.347656 48.761719 22.027344 48.339844 21.867188 47.835938 C 21.847656 47.769531 21.742188 47.796875 21.765625 47.863281 Z M 21.765625 47.863281 " fill-opacity="1" fill-rule="nonzero"/><path fill="#ffffff" d="M 43.308594 23.519531 C 44.789062 24.40625 46.019531 25.875 46.171875 27.578125 C 46.238281 28.316406 46.105469 29.054688 46.007812 29.789062 C 45.773438 31.664062 45.796875 33.53125 46.082031 35.398438 C 46.238281 36.398438 46.464844 37.402344 46.386719 38.414062 C 46.339844 39.046875 46.167969 39.671875 45.957031 40.273438 C 45.402344 41.867188 44.597656 43.324219 43.546875 44.652344 C 42.496094 45.976562 41.253906 47.097656 39.828125 48.015625 C 39.738281 48.066406 39.640625 48.125 39.539062 48.105469 C 39.453125 48.089844 39.382812 48.019531 39.324219 47.953125 C 37.171875 45.542969 35.003906 43.105469 33.449219 40.285156 C 32.820312 39.152344 32.289062 37.890625 32.4375 36.605469 C 32.566406 35.46875 33.21875 34.460938 33.851562 33.503906 C 35.992188 30.25 38.144531 26.984375 40.765625 24.101562 C 41.3125 23.503906 41.960938 22.878906 42.777344 22.832031 " fill-opacity="1" fill-rule="nonzero"/><path fill="#ffffff" d="M 43.28125 23.566406 C 44.910156 24.570312 46.167969 26.164062 46.132812 28.132812 C 46.117188 29.132812 45.890625 30.125 45.832031 31.121094 C 45.773438 32.105469 45.785156 33.085938 45.871094 34.066406 C 46.046875 36.109375 46.640625 38.003906 45.984375 40.027344 C 45.421875 41.738281 44.574219 43.292969 43.4375 44.695312 C 42.972656 45.277344 42.464844 45.824219 41.914062 46.332031 C 41.460938 46.75 40.046875 48.253906 39.359375 47.910156 C 39.082031 47.773438 38.71875 47.191406 38.511719 46.957031 C 38.230469 46.640625 37.949219 46.320312 37.671875 45.996094 C 36.949219 45.164062 36.246094 44.316406 35.582031 43.441406 C 34.457031 41.949219 33.261719 40.28125 32.703125 38.484375 C 32.042969 36.347656 33.117188 34.710938 34.253906 32.984375 C 35.417969 31.214844 36.59375 29.449219 37.859375 27.746094 C 38.527344 26.84375 39.21875 25.964844 39.945312 25.113281 C 40.691406 24.234375 41.539062 23.035156 42.773438 22.882812 C 42.839844 22.875 42.839844 22.769531 42.773438 22.777344 C 41.984375 22.871094 41.40625 23.339844 40.875 23.898438 C 40.109375 24.703125 39.402344 25.570312 38.71875 26.441406 C 37.375 28.148438 36.144531 29.9375 34.945312 31.742188 C 33.898438 33.316406 32.335938 35.09375 32.355469 37.085938 C 32.371094 39.039062 33.667969 40.917969 34.742188 42.464844 C 35.957031 44.214844 37.355469 45.824219 38.773438 47.417969 C 39.253906 47.957031 39.390625 48.355469 40.039062 47.9375 C 40.796875 47.441406 41.5 46.882812 42.148438 46.253906 C 43.519531 44.949219 44.605469 43.445312 45.410156 41.742188 C 45.800781 40.910156 46.148438 40.035156 46.335938 39.132812 C 46.535156 38.152344 46.425781 37.179688 46.265625 36.199219 C 46.035156 34.777344 45.875 33.367188 45.90625 31.925781 C 45.929688 30.609375 46.242188 29.304688 46.238281 27.996094 C 46.234375 26.050781 44.941406 24.464844 43.335938 23.472656 C 43.273438 23.4375 43.222656 23.527344 43.28125 23.566406 Z M 43.28125 23.566406 " fill-opacity="1" fill-rule="nonzero"/><path fill="#ffffff" d="M 39.636719 47.847656 C 39.640625 48.019531 39.464844 48.132812 39.308594 48.210938 C 37.9375 48.914062 36.539062 49.59375 35.058594 50.023438 C 32.855469 50.660156 30.632812 50.738281 28.390625 50.257812 C 28.226562 50.222656 28.058594 50.179688 27.941406 50.0625 C 27.792969 49.914062 27.773438 49.6875 27.761719 49.480469 C 27.605469 47.007812 27.453125 44.5 27.929688 42.066406 C 27.984375 41.789062 28.070312 41.484375 28.316406 41.34375 C 28.511719 41.226562 28.757812 41.25 28.984375 41.269531 C 30.683594 41.40625 32.378906 41.03125 34.082031 40.949219 C 35.785156 40.867188 37.640625 41.148438 38.847656 42.339844 C 40.035156 43.511719 40.328125 45.296875 40.363281 46.957031 " fill-opacity="1" fill-rule="nonzero"/><path fill="#ffffff" d="M 39.585938 47.835938 C 39.441406 48.285156 38.402344 48.613281 38.015625 48.796875 C 37.4375 49.070312 36.855469 49.335938 36.257812 49.5625 C 35.132812 49.996094 33.972656 50.285156 32.769531 50.421875 C 31.566406 50.558594 30.367188 50.53125 29.167969 50.347656 C 28.933594 50.3125 28.621094 50.304688 28.402344 50.207031 C 27.96875 50.015625 27.8125 49.519531 27.785156 49.066406 C 27.75 48.46875 27.714844 47.875 27.691406 47.277344 C 27.644531 46.085938 27.640625 44.890625 27.753906 43.699219 C 27.804688 43.132812 27.789062 42.285156 28.078125 41.761719 C 28.433594 41.113281 29.425781 41.367188 30.054688 41.351562 C 32.285156 41.296875 34.53125 40.652344 36.742188 41.25 C 39.445312 41.984375 40.238281 44.445312 40.308594 46.957031 C 40.308594 46.992188 40.328125 47.011719 40.363281 47.011719 C 40.402344 47.011719 40.417969 46.992188 40.417969 46.957031 C 40.355469 44.753906 39.796875 42.414062 37.578125 41.429688 C 35.09375 40.328125 32.375 41.246094 29.792969 41.246094 C 29.355469 41.246094 28.6875 41.054688 28.289062 41.296875 C 27.945312 41.507812 27.894531 41.972656 27.832031 42.324219 C 27.558594 43.820312 27.527344 45.347656 27.574219 46.863281 C 27.597656 47.644531 27.640625 48.425781 27.691406 49.207031 C 27.714844 49.578125 27.691406 49.984375 28.046875 50.203125 C 28.40625 50.421875 29.003906 50.4375 29.410156 50.492188 C 30.183594 50.59375 30.957031 50.632812 31.738281 50.605469 C 33.308594 50.546875 34.824219 50.230469 36.289062 49.664062 C 37.015625 49.386719 37.71875 49.0625 38.417969 48.722656 C 38.835938 48.515625 39.535156 48.34375 39.6875 47.863281 C 39.710938 47.796875 39.605469 47.769531 39.585938 47.832031 Z M 39.585938 47.835938 " fill-opacity="1" fill-rule="nonzero"/><path fill="#415584" d="M 14.695312 27.25 C 13.691406 27.339844 12.820312 28.042969 12.308594 28.90625 C 11.796875 29.765625 11.59375 30.765625 11.449219 31.753906 C 11.25 33.148438 11.167969 34.59375 11.585938 35.9375 C 11.734375 36.421875 11.949219 36.886719 12.171875 37.34375 C 12.480469 37.980469 12.921875 38.691406 13.632812 38.75 C 14.121094 38.789062 14.59375 38.480469 14.863281 38.070312 C 15.128906 37.660156 15.234375 37.171875 15.300781 36.6875 C 15.511719 35.230469 15.464844 33.75 15.421875 32.28125 C 15.394531 31.351562 15.367188 30.421875 15.335938 29.496094 C 15.3125 28.679688 15.210938 27.726562 14.511719 27.292969 " fill-opacity="1" fill-rule="nonzero"/><path fill="#415584" d="M 46.558594 27.25 C 47.566406 27.339844 48.433594 28.042969 48.945312 28.90625 C 49.457031 29.765625 49.664062 30.765625 49.804688 31.753906 C 50.003906 33.148438 50.089844 34.59375 49.671875 35.9375 C 49.519531 36.421875 49.308594 36.886719 49.085938 37.34375 C 48.777344 37.980469 48.332031 38.691406 47.625 38.75 C 47.132812 38.789062 46.664062 38.480469 46.394531 38.070312 C 46.125 37.660156 46.019531 37.171875 45.949219 36.6875 C 45.742188 35.230469 45.789062 33.75 45.832031 32.28125 L 45.914062 29.496094 C 45.941406 28.679688 46.039062 27.726562 46.742188 27.292969 " fill-opacity="1" fill-rule="nonzero"/><path fill="#ff6724" d="M 11.632812 23.5625 C 11.492188 23.523438 11.34375 23.617188 11.277344 23.746094 C 11.210938 23.875 11.210938 24.027344 11.230469 24.167969 C 11.273438 24.484375 11.417969 24.8125 11.703125 24.960938 C 11.816406 25.015625 11.9375 25.042969 12.066406 25.039062 C 12.523438 25.023438 12.914062 24.570312 12.855469 24.121094 C 12.796875 23.675781 12.304688 23.332031 11.859375 23.433594 " fill-opacity="1" fill-rule="nonzero"/><path fill="#ff6724" d="M 11.632812 23.347656 C 10.957031 23.289062 10.9375 24.121094 11.109375 24.566406 C 11.308594 25.082031 11.84375 25.390625 12.386719 25.1875 C 12.871094 25.003906 13.191406 24.445312 13.035156 23.941406 C 12.871094 23.417969 12.328125 23.140625 11.800781 23.226562 C 11.527344 23.273438 11.644531 23.683594 11.914062 23.636719 C 12.527344 23.539062 12.894531 24.292969 12.40625 24.6875 C 12.179688 24.871094 11.855469 24.871094 11.652344 24.652344 C 11.53125 24.523438 11.222656 23.742188 11.632812 23.773438 C 11.910156 23.800781 11.910156 23.375 11.632812 23.347656 Z M 11.632812 23.347656 " fill-opacity="1" fill-rule="nonzero"/><path fill="#ff6724" d="M 48.925781 23.5625 C 48.789062 23.523438 48.636719 23.617188 48.570312 23.746094 C 48.503906 23.875 48.503906 24.027344 48.523438 24.167969 C 48.566406 24.484375 48.710938 24.8125 48.996094 24.960938 C 49.109375 25.015625 49.230469 25.042969 49.359375 25.039062 C 49.816406 25.023438 50.207031 24.570312 50.148438 24.121094 C 50.089844 23.675781 49.597656 23.332031 49.152344 23.433594 " fill-opacity="1" fill-rule="nonzero"/><path fill="#ff6724" d="M 48.925781 23.347656 C 48.25 23.289062 48.230469 24.121094 48.402344 24.566406 C 48.601562 25.082031 49.136719 25.390625 49.679688 25.1875 C 50.164062 25.003906 50.484375 24.445312 50.328125 23.941406 C 50.164062 23.417969 49.621094 23.140625 49.09375 23.226562 C 48.820312 23.273438 48.9375 23.683594 49.207031 23.636719 C 49.820312 23.539062 50.1875 24.292969 49.695312 24.6875 C 49.46875 24.871094 49.144531 24.871094 48.941406 24.652344 C 48.824219 24.523438 48.515625 23.742188 48.925781 23.773438 C 49.203125 23.800781 49.195312 23.375 48.925781 23.347656 Z M 48.925781 23.347656 " fill-opacity="1" fill-rule="nonzero"/><path fill="#ff6724" d="M 30.296875 12.609375 C 29.945312 12.839844 29.679688 13.140625 29.496094 13.519531 C 29.316406 13.894531 29.246094 14.289062 29.285156 14.703125 C 29.300781 14.898438 29.355469 15.082031 29.445312 15.253906 C 29.753906 15.8125 30.550781 16.003906 31.128906 15.726562 C 31.707031 15.449219 32.046875 14.796875 32.042969 14.164062 C 32.050781 13.855469 31.96875 13.570312 31.804688 13.3125 C 31.65625 13.101562 31.457031 12.949219 31.210938 12.855469 C 30.96875 12.765625 30.71875 12.753906 30.464844 12.816406 " fill-opacity="1" fill-rule="nonzero"/><path fill="#ff6724" d="M 30.1875 12.425781 C 29.429688 12.953125 28.953125 13.828125 29.078125 14.761719 C 29.199219 15.675781 30.042969 16.253906 30.957031 16.011719 C 32.875 15.507812 32.574219 12.203125 30.40625 12.609375 C 30.132812 12.664062 30.246094 13.070312 30.519531 13.019531 C 32.238281 12.699219 32.195312 15.523438 30.636719 15.632812 C 29.859375 15.683594 29.449219 15.078125 29.496094 14.355469 C 29.535156 13.71875 29.886719 13.160156 30.410156 12.792969 C 30.632812 12.636719 30.417969 12.269531 30.191406 12.425781 Z M 30.1875 12.425781 " fill-opacity="1" fill-rule="nonzero"/><path fill="#b3b3b3" d="M 22.191406 42.203125 C 21.179688 43.550781 20.191406 44.914062 19.667969 46.53125 C 19.585938 46.792969 20 46.90625 20.085938 46.644531 C 20.597656 45.066406 21.574219 43.734375 22.566406 42.417969 C 22.730469 42.195312 22.359375 41.984375 22.191406 42.203125 Z M 22.191406 42.203125 " fill-opacity="1" fill-rule="nonzero"/><path fill="#b3b3b3" d="M 15.554688 31.820312 C 15.851562 31.289062 16.15625 30.761719 16.46875 30.238281 C 16.652344 29.925781 16.746094 29.675781 17.128906 29.582031 C 17.445312 29.507812 17.8125 29.511719 18.136719 29.480469 C 18.410156 29.453125 18.414062 29.023438 18.136719 29.054688 C 17.625 29.109375 16.785156 29.003906 16.441406 29.453125 C 15.945312 30.097656 15.578125 30.894531 15.183594 31.601562 C 15.046875 31.84375 15.421875 32.058594 15.554688 31.820312 Z M 15.554688 31.820312 " fill-opacity="1" fill-rule="nonzero"/><path fill="#b3b3b3" d="M 16.964844 40.859375 C 17.367188 40.589844 17.757812 40.296875 18.203125 40.101562 C 18.710938 39.875 19.222656 39.898438 19.765625 39.949219 C 20.039062 39.972656 20.039062 39.546875 19.765625 39.519531 C 18.570312 39.414062 17.871094 39.757812 16.933594 40.367188 C 16.324219 39.257812 15.941406 38.074219 15.777344 36.824219 C 15.742188 36.554688 15.3125 36.550781 15.347656 36.824219 C 15.523438 38.230469 15.964844 39.550781 16.671875 40.78125 C 16.742188 40.902344 16.84375 40.929688 16.964844 40.859375 Z M 16.964844 40.859375 " fill-opacity="1" fill-rule="nonzero"/><path fill="#b3b3b3" d="M 39.09375 42.203125 C 38.933594 41.984375 38.558594 42.195312 38.722656 42.417969 C 39.710938 43.734375 40.691406 45.066406 41.203125 46.644531 C 41.289062 46.902344 41.703125 46.792969 41.617188 46.53125 C 41.09375 44.914062 40.109375 43.550781 39.09375 42.203125 Z M 39.09375 42.203125 " fill-opacity="1" fill-rule="nonzero"/><path fill="#b3b3b3" d="M 46.105469 31.601562 C 45.710938 30.894531 45.339844 30.09375 44.847656 29.453125 C 44.503906 29.003906 43.660156 29.105469 43.152344 29.054688 C 42.875 29.023438 42.878906 29.453125 43.152344 29.480469 C 43.453125 29.511719 43.765625 29.515625 44.058594 29.574219 C 44.515625 29.660156 44.601562 29.871094 44.820312 30.238281 C 45.132812 30.757812 45.4375 31.285156 45.734375 31.820312 C 45.867188 32.058594 46.242188 31.84375 46.105469 31.601562 Z M 46.105469 31.601562 " fill-opacity="1" fill-rule="nonzero"/><path fill="#b3b3b3" d="M 45.511719 36.820312 C 45.347656 38.074219 44.964844 39.257812 44.355469 40.367188 C 43.417969 39.753906 42.71875 39.410156 41.523438 39.519531 C 41.25 39.542969 41.246094 39.972656 41.523438 39.945312 C 42.066406 39.898438 42.578125 39.875 43.085938 40.097656 C 43.527344 40.296875 43.921875 40.589844 44.324219 40.859375 C 44.445312 40.929688 44.546875 40.902344 44.617188 40.78125 C 45.324219 39.546875 45.765625 38.226562 45.941406 36.820312 C 45.976562 36.550781 45.546875 36.550781 45.511719 36.820312 Z M 45.511719 36.820312 " fill-opacity="1" fill-rule="nonzero"/><path fill="#b3b3b3" d="M 33.359375 47.617188 C 33.316406 47.488281 33.230469 47.441406 33.09375 47.46875 C 32.3125 47.578125 31.527344 47.59375 30.738281 47.519531 C 30.710938 47.507812 30.679688 47.503906 30.652344 47.507812 L 30.636719 47.507812 C 30.605469 47.503906 30.578125 47.507812 30.550781 47.519531 C 29.761719 47.59375 28.976562 47.578125 28.195312 47.46875 C 28.058594 47.441406 27.972656 47.488281 27.929688 47.617188 L 27.011719 49.773438 C 26.902344 50.027344 27.320312 50.136719 27.425781 49.886719 C 27.710938 49.226562 27.992188 48.566406 28.269531 47.90625 C 29.0625 48.003906 29.851562 48.011719 30.644531 47.9375 C 31.4375 48.011719 32.226562 48.003906 33.015625 47.90625 C 33.296875 48.566406 33.578125 49.226562 33.859375 49.886719 C 33.96875 50.136719 34.382812 50.027344 34.277344 49.773438 Z M 33.359375 47.617188 " fill-opacity="1" fill-rule="nonzero"/><path fill="#b3b3b3" d="M 45.472656 41.246094 C 45.277344 41.390625 44.910156 41.785156 44.675781 41.828125 C 44.316406 41.898438 44.039062 41.570312 43.769531 41.378906 C 43.738281 41.359375 43.714844 41.367188 43.695312 41.398438 C 43.011719 42.523438 42.277344 43.609375 41.160156 44.359375 C 41.128906 44.378906 41.125 44.402344 41.140625 44.433594 C 41.515625 44.925781 41.785156 45.46875 41.953125 46.058594 C 41.960938 46.078125 41.972656 46.089844 41.996094 46.09375 C 42.015625 46.097656 42.035156 46.09375 42.046875 46.074219 L 42.078125 46.097656 C 42.0625 46.125 42.066406 46.144531 42.089844 46.164062 C 42.113281 46.183594 42.132812 46.183594 42.15625 46.167969 C 42.902344 45.460938 43.554688 44.679688 44.121094 43.824219 C 44.632812 43.039062 45.253906 42.199219 45.550781 41.304688 C 45.566406 41.265625 45.511719 41.21875 45.472656 41.246094 Z M 45.472656 41.246094 " fill-opacity="1" fill-rule="nonzero"/><path fill="#b3b3b3" d="M 44.445312 28.308594 C 44.59375 28.445312 44.847656 28.5 45.023438 28.601562 C 45.308594 28.773438 45.5625 28.976562 45.792969 29.214844 C 45.835938 29.257812 45.867188 29.25 45.882812 29.191406 C 45.992188 28.519531 46.234375 27.8125 45.957031 27.160156 C 45.589844 26.296875 45.003906 25.492188 44.433594 24.753906 C 44.410156 24.722656 44.386719 24.71875 44.355469 24.738281 L 44.199219 24.558594 C 44.199219 24.535156 44.195312 24.511719 44.195312 24.488281 C 44.191406 24.421875 44.082031 24.421875 44.085938 24.488281 C 44.160156 25.640625 44.175781 26.8125 44.308594 27.960938 C 44.332031 28.15625 44.316406 28.191406 44.445312 28.308594 Z M 44.445312 28.308594 " fill-opacity="1" fill-rule="nonzero"/><path fill="#b3b3b3" d="M 20.171875 44.359375 C 19.058594 43.609375 18.324219 42.523438 17.636719 41.398438 C 17.621094 41.367188 17.59375 41.359375 17.566406 41.378906 C 17.292969 41.570312 17.019531 41.898438 16.660156 41.828125 C 16.425781 41.78125 16.058594 41.390625 15.863281 41.246094 C 15.824219 41.21875 15.769531 41.265625 15.78125 41.308594 C 16.078125 42.199219 16.699219 43.039062 17.214844 43.824219 C 17.777344 44.679688 18.433594 45.460938 19.175781 46.167969 C 19.199219 46.183594 19.222656 46.183594 19.246094 46.164062 C 19.269531 46.144531 19.273438 46.125 19.257812 46.097656 L 19.289062 46.074219 C 19.300781 46.09375 19.320312 46.097656 19.339844 46.09375 C 19.363281 46.089844 19.375 46.078125 19.382812 46.058594 C 19.550781 45.46875 19.820312 44.925781 20.191406 44.433594 C 20.210938 44.402344 20.203125 44.378906 20.171875 44.359375 Z M 20.171875 44.359375 " fill-opacity="1" fill-rule="nonzero"/><path fill="#b3b3b3" d="M 15.539062 29.214844 C 15.742188 29.003906 15.96875 28.820312 16.214844 28.660156 C 16.386719 28.550781 16.65625 28.488281 16.8125 28.359375 C 17.019531 28.191406 16.992188 28.238281 17.027344 27.960938 C 17.164062 26.8125 17.175781 25.640625 17.25 24.488281 C 17.253906 24.421875 17.148438 24.421875 17.140625 24.488281 C 17.140625 24.511719 17.140625 24.535156 17.136719 24.558594 L 16.980469 24.738281 C 16.953125 24.71875 16.925781 24.722656 16.902344 24.753906 C 16.332031 25.492188 15.746094 26.296875 15.378906 27.160156 C 15.101562 27.8125 15.34375 28.519531 15.453125 29.191406 C 15.472656 29.242188 15.5 29.25 15.539062 29.214844 Z M 15.539062 29.214844 " fill-opacity="1" fill-rule="nonzero"/><path fill="#415584" d="M 30.707031 18.183594 L 30.707031 18.167969 L 30.644531 18.175781 L 30.582031 18.167969 L 30.582031 18.183594 C 29.535156 18.300781 22.21875 19.285156 18.089844 23.578125 L 18.523438 35.195312 C 18.523438 35.195312 18.613281 40.796875 19.765625 41.886719 C 20.902344 42.964844 26.953125 44.550781 30.5625 44.582031 L 30.683594 44.582031 C 30.699219 44.582031 30.710938 44.582031 30.722656 44.582031 C 34.332031 44.550781 40.382812 42.964844 41.519531 41.886719 C 42.671875 40.796875 42.761719 35.195312 42.761719 35.195312 L 43.195312 23.578125 C 39.070312 19.285156 31.753906 18.300781 30.707031 18.183594 Z M 30.707031 18.183594 " fill-opacity="1" fill-rule="nonzero"/><path fill="#263151" d="M 41.234375 27.835938 C 41.21875 27.582031 41.203125 27.324219 41.121094 27.085938 C 40.941406 26.546875 40.457031 26.15625 39.929688 25.941406 C 39.402344 25.726562 38.824219 25.664062 38.253906 25.605469 C 38.082031 25.589844 37.90625 25.570312 37.742188 25.628906 C 37.449219 25.734375 37.292969 26.046875 37.167969 26.332031 C 36.59375 27.621094 35.976562 28.90625 35.074219 29.992188 C 34.167969 31.078125 32.945312 31.960938 31.546875 32.203125 C 31.234375 32.257812 30.054688 32.257812 29.742188 32.203125 C 28.339844 31.957031 27.117188 31.074219 26.214844 29.988281 C 25.308594 28.90625 24.691406 27.617188 24.117188 26.328125 C 23.992188 26.046875 23.839844 25.734375 23.542969 25.628906 C 23.378906 25.570312 23.203125 25.585938 23.03125 25.605469 C 22.464844 25.664062 21.886719 25.722656 21.355469 25.9375 C 20.828125 26.152344 20.34375 26.546875 20.164062 27.085938 C 20.085938 27.324219 20.066406 27.582031 20.050781 27.835938 C 19.855469 31.207031 19.921875 34.574219 20.25 37.933594 C 20.328125 38.734375 20.425781 39.550781 20.792969 40.269531 C 21.160156 40.984375 21.84375 41.59375 22.65625 41.648438 C 23.183594 41.761719 27.917969 42.960938 29.621094 43.003906 C 29.96875 43.011719 31.324219 43.011719 31.667969 43.003906 C 33.371094 42.960938 38.105469 41.761719 38.636719 41.648438 C 39.445312 41.59375 40.132812 40.984375 40.5 40.269531 C 40.863281 39.550781 40.960938 38.734375 41.039062 37.933594 C 41.367188 34.574219 41.429688 31.207031 41.234375 27.835938 Z M 41.234375 27.835938 " fill-opacity="1" fill-rule="nonzero"/><path fill="#263151" d="M 48.074219 38.242188 C 48.628906 36.289062 48.457031 34.199219 47.960938 32.230469 C 47.808594 33.09375 47.605469 33.945312 47.355469 34.785156 C 47.304688 34.957031 47.238281 35.140625 47.082031 35.230469 C 46.707031 33.15625 46.707031 31.027344 46.269531 28.96875 C 46.023438 31.394531 46.121094 33.84375 46.21875 36.28125 C 46.242188 36.832031 46.265625 37.378906 46.339844 37.925781 C 46.367188 38.128906 46.40625 38.347656 46.542969 38.507812 C 46.777344 38.785156 47.199219 38.792969 47.566406 38.773438 C 47.636719 38.777344 47.703125 38.765625 47.765625 38.730469 C 47.84375 38.675781 47.875 38.582031 47.894531 38.488281 C 48.035156 37.914062 48.144531 37.332031 48.226562 36.746094 " fill-opacity="1" fill-rule="nonzero"/><path fill="#263151" d="M 48.128906 38.253906 C 48.664062 36.253906 48.5 34.210938 48.011719 32.21875 C 48.003906 32.191406 47.988281 32.179688 47.960938 32.179688 C 47.933594 32.179688 47.917969 32.191406 47.910156 32.21875 C 47.78125 32.90625 47.632812 33.589844 47.449219 34.265625 C 47.410156 34.398438 47.386719 34.664062 47.304688 34.769531 C 47.074219 35.0625 47.125 34.875 47.042969 34.675781 C 46.882812 34.273438 46.90625 33.621094 46.859375 33.1875 C 46.710938 31.773438 46.601562 30.351562 46.320312 28.953125 C 46.304688 28.890625 46.21875 28.910156 46.210938 28.96875 C 45.933594 31.863281 45.945312 34.757812 46.25 37.652344 C 46.328125 38.390625 46.5625 38.851562 47.378906 38.832031 C 47.617188 38.828125 47.753906 38.832031 47.898438 38.640625 C 48.042969 38.445312 48.0625 37.996094 48.105469 37.761719 C 48.171875 37.429688 48.226562 37.097656 48.273438 36.761719 C 48.285156 36.695312 48.179688 36.664062 48.171875 36.734375 C 48.085938 37.316406 48.105469 38.59375 47.378906 38.726562 C 46.152344 38.949219 46.300781 36.972656 46.269531 36.28125 C 46.207031 34.78125 46.148438 33.277344 46.167969 31.777344 C 46.179688 31.023438 46.246094 30.277344 46.269531 29.527344 C 46.289062 28.824219 46.339844 29.640625 46.363281 29.792969 C 46.4375 30.238281 46.492188 30.6875 46.542969 31.136719 C 46.695312 32.507812 46.792969 33.886719 47.027344 35.246094 C 47.042969 35.304688 47.074219 35.3125 47.117188 35.269531 C 47.476562 34.941406 47.535156 34.363281 47.648438 33.914062 C 47.746094 33.539062 47.792969 33.132812 47.914062 32.761719 C 47.917969 32.742188 47.953125 32.511719 47.964844 32.503906 C 47.949219 32.511719 48.097656 33.109375 48.105469 33.152344 C 48.433594 34.839844 48.464844 36.558594 48.019531 38.226562 C 48.015625 38.257812 48.027344 38.277344 48.058594 38.285156 C 48.089844 38.292969 48.109375 38.285156 48.121094 38.253906 Z M 48.128906 38.253906 " fill-opacity="1" fill-rule="nonzero"/><path fill="#263151" d="M 46.65625 27.785156 C 46.308594 29.0625 46.457031 30.414062 46.613281 31.730469 C 46.707031 32.472656 46.796875 33.214844 46.894531 33.957031 C 46.933594 34.25 46.984375 34.570312 47.203125 34.773438 L 47.753906 33.847656 C 47.835938 34.410156 47.671875 34.980469 47.511719 35.527344 C 47.449219 35.734375 47.375 35.960938 47.195312 36.082031 C 47.121094 36.140625 47.035156 36.160156 46.941406 36.140625 C 46.773438 36.097656 46.714844 35.894531 46.691406 35.722656 C 46.402344 33.886719 46.15625 32.027344 46.289062 30.171875 C 46.300781 30.011719 46.3125 29.847656 46.316406 29.683594 C 46.316406 29.535156 46.308594 29.390625 46.308594 29.242188 C 46.316406 28.976562 46.355469 28.714844 46.433594 28.460938 " fill-opacity="1" fill-rule="nonzero"/><path fill="#263151" d="M 46.601562 27.769531 C 46.28125 29.082031 46.402344 30.402344 46.5625 31.730469 C 46.648438 32.472656 46.722656 33.222656 46.839844 33.960938 C 46.894531 34.292969 46.945312 34.550781 47.167969 34.808594 C 47.199219 34.839844 47.226562 34.835938 47.25 34.800781 C 47.34375 34.644531 47.429688 34.488281 47.527344 34.335938 C 47.710938 34.054688 47.667969 34.027344 47.722656 34.210938 C 47.789062 34.4375 47.617188 35.316406 47.460938 35.511719 L 47.410156 35.671875 L 46.742188 35.710938 C 46.65625 35.65625 46.652344 35.113281 46.636719 35.019531 C 46.5625 34.519531 46.496094 34.015625 46.441406 33.511719 C 46.351562 32.726562 46.308594 31.9375 46.308594 31.148438 C 46.3125 30.289062 46.277344 29.304688 46.488281 28.476562 C 46.503906 28.410156 46.398438 28.382812 46.382812 28.449219 C 46.113281 29.507812 46.171875 30.757812 46.210938 31.84375 C 46.257812 33.058594 46.386719 34.265625 46.597656 35.464844 C 46.652344 35.792969 46.75 36.421875 47.234375 36.121094 C 47.800781 35.773438 47.859375 34.402344 47.808594 33.847656 C 47.808594 33.824219 47.796875 33.804688 47.769531 33.800781 C 47.746094 33.792969 47.722656 33.800781 47.710938 33.824219 C 47.546875 34.097656 47.367188 34.804688 47.007812 34.300781 C 46.859375 34.089844 46.910156 33.65625 46.878906 33.402344 C 46.800781 32.800781 46.726562 32.203125 46.652344 31.601562 C 46.503906 30.324219 46.398438 29.0625 46.707031 27.800781 C 46.722656 27.734375 46.621094 27.703125 46.605469 27.769531 Z M 46.601562 27.769531 " fill-opacity="1" fill-rule="nonzero"/><path fill="#263151" d="M 48.386719 36.351562 C 48.332031 36.679688 48.328125 37.007812 48.375 37.339844 C 48.394531 37.464844 48.449219 37.613281 48.574219 37.625 C 48.699219 37.636719 48.789062 37.484375 48.90625 37.425781 C 48.933594 37.558594 48.863281 37.691406 48.789062 37.804688 C 48.613281 38.070312 48.390625 38.296875 48.128906 38.484375 C 48.101562 38.507812 48.058594 38.527344 48.03125 38.503906 C 48.019531 38.492188 48.011719 38.476562 48.007812 38.460938 C 47.835938 37.8125 47.777344 37.15625 47.835938 36.492188 " fill-opacity="1" fill-rule="nonzero"/><path fill="#263151" d="M 48.332031 36.335938 C 48.285156 36.671875 48.183594 37.230469 48.382812 37.539062 C 48.484375 37.695312 48.539062 37.640625 48.691406 37.652344 C 48.699219 37.652344 48.78125 37.585938 48.785156 37.589844 C 48.878906 37.683594 48.554688 38.027344 48.5 38.085938 C 48.4375 38.152344 48.375 38.214844 48.304688 38.277344 C 48.0625 38.492188 48.078125 38.445312 48.007812 38.222656 C 47.835938 37.683594 47.847656 37.046875 47.890625 36.488281 C 47.894531 36.421875 47.789062 36.421875 47.78125 36.488281 C 47.746094 36.925781 47.757812 37.363281 47.820312 37.800781 C 47.839844 37.953125 47.847656 38.46875 48.015625 38.554688 C 48.160156 38.628906 48.398438 38.339844 48.480469 38.257812 C 48.710938 38.035156 48.953125 37.761719 48.960938 37.429688 C 48.960938 37.367188 48.933594 37.351562 48.878906 37.382812 C 48.847656 37.402344 48.816406 37.425781 48.785156 37.449219 C 48.496094 37.535156 48.371094 37.445312 48.410156 37.175781 C 48.386719 36.90625 48.394531 36.632812 48.4375 36.367188 C 48.445312 36.296875 48.34375 36.269531 48.332031 36.335938 Z M 48.332031 36.335938 " fill-opacity="1" fill-rule="nonzero"/><path fill="#263151" d="M 13.316406 38.242188 C 12.757812 36.289062 12.933594 34.199219 13.429688 32.230469 C 13.582031 33.09375 13.785156 33.945312 14.035156 34.785156 C 14.085938 34.957031 14.152344 35.140625 14.308594 35.230469 C 14.679688 33.15625 14.683594 31.027344 15.121094 28.96875 C 15.367188 31.394531 15.269531 33.84375 15.171875 36.28125 C 15.148438 36.832031 15.125 37.378906 15.050781 37.921875 C 15.023438 38.128906 14.984375 38.34375 14.847656 38.503906 C 14.613281 38.78125 14.191406 38.789062 13.824219 38.773438 C 13.753906 38.777344 13.6875 38.761719 13.625 38.730469 C 13.546875 38.675781 13.519531 38.578125 13.496094 38.488281 C 13.355469 37.914062 13.246094 37.332031 13.164062 36.746094 " fill-opacity="1" fill-rule="nonzero"/><path fill="#263151" d="M 13.367188 38.226562 C 12.917969 36.558594 12.949219 34.839844 13.277344 33.152344 C 13.304688 33.011719 13.3125 32.753906 13.386719 32.632812 C 13.5 32.457031 13.34375 32.464844 13.449219 32.632812 C 13.628906 32.914062 13.621094 33.453125 13.707031 33.785156 C 13.828125 34.269531 13.882812 34.917969 14.269531 35.269531 C 14.3125 35.3125 14.34375 35.304688 14.359375 35.246094 C 14.597656 33.886719 14.691406 32.507812 14.84375 31.136719 C 14.894531 30.6875 14.953125 30.238281 15.023438 29.792969 C 15.050781 29.640625 15.097656 28.824219 15.121094 29.527344 C 15.140625 30.28125 15.210938 31.023438 15.21875 31.777344 C 15.238281 33.28125 15.179688 34.78125 15.117188 36.28125 C 15.085938 36.972656 15.234375 38.949219 14.007812 38.726562 C 13.28125 38.59375 13.300781 37.316406 13.214844 36.734375 C 13.207031 36.664062 13.101562 36.695312 13.113281 36.761719 C 13.160156 37.097656 13.214844 37.429688 13.28125 37.761719 C 13.328125 37.996094 13.339844 38.441406 13.488281 38.640625 C 13.636719 38.835938 13.769531 38.828125 14.007812 38.835938 C 14.820312 38.851562 15.054688 38.394531 15.136719 37.652344 C 15.441406 34.761719 15.453125 31.863281 15.175781 28.96875 C 15.167969 28.914062 15.082031 28.890625 15.066406 28.953125 C 14.78125 30.355469 14.671875 31.773438 14.523438 33.191406 C 14.480469 33.597656 14.433594 34.003906 14.375 34.410156 C 14.34375 34.640625 14.402344 34.972656 14.1875 34.859375 C 14.023438 34.777344 14.015625 34.550781 13.96875 34.394531 C 13.769531 33.675781 13.609375 32.953125 13.472656 32.21875 C 13.464844 32.164062 13.382812 32.171875 13.371094 32.21875 C 12.882812 34.210938 12.71875 36.257812 13.253906 38.257812 C 13.269531 38.285156 13.289062 38.296875 13.320312 38.289062 C 13.351562 38.277344 13.363281 38.257812 13.359375 38.226562 Z M 13.367188 38.226562 " fill-opacity="1" fill-rule="nonzero"/><path fill="#263151" d="M 14.734375 27.785156 C 15.082031 29.0625 14.933594 30.414062 14.773438 31.730469 C 14.6875 32.472656 14.59375 33.214844 14.496094 33.957031 C 14.460938 34.25 14.40625 34.570312 14.1875 34.773438 L 13.636719 33.847656 C 13.554688 34.410156 13.71875 34.980469 13.878906 35.527344 C 13.941406 35.734375 14.015625 35.960938 14.195312 36.082031 C 14.273438 36.140625 14.355469 36.160156 14.449219 36.140625 C 14.617188 36.097656 14.675781 35.894531 14.703125 35.722656 C 14.992188 33.886719 15.234375 32.027344 15.101562 30.171875 C 15.09375 30.011719 15.078125 29.847656 15.074219 29.683594 C 15.074219 29.535156 15.082031 29.390625 15.082031 29.242188 C 15.078125 28.976562 15.035156 28.714844 14.957031 28.460938 " fill-opacity="1" fill-rule="nonzero"/><path fill="#263151" d="M 14.683594 27.796875 C 14.992188 29.058594 14.886719 30.320312 14.738281 31.597656 C 14.664062 32.199219 14.589844 32.800781 14.511719 33.402344 C 14.480469 33.65625 14.53125 34.089844 14.382812 34.300781 C 14.023438 34.808594 13.84375 34.097656 13.683594 33.820312 C 13.667969 33.796875 13.648438 33.789062 13.621094 33.796875 C 13.597656 33.804688 13.582031 33.820312 13.582031 33.847656 C 13.539062 34.355469 13.621094 34.816406 13.757812 35.304688 C 13.828125 35.558594 13.902344 35.964844 14.15625 36.121094 C 14.640625 36.417969 14.738281 35.789062 14.796875 35.460938 C 15.003906 34.261719 15.132812 33.054688 15.179688 31.839844 C 15.21875 30.761719 15.277344 29.5 15.011719 28.445312 C 14.996094 28.417969 14.976562 28.40625 14.945312 28.414062 C 14.914062 28.425781 14.902344 28.445312 14.90625 28.476562 C 15.105469 29.257812 15.070312 30.195312 15.082031 31.007812 C 15.089844 31.84375 15.046875 32.675781 14.949219 33.507812 C 14.902344 33.96875 14.84375 34.421875 14.773438 34.878906 C 14.753906 35.011719 14.753906 35.449219 14.667969 35.570312 C 14.683594 35.773438 14.566406 35.8125 14.316406 35.691406 C 14.097656 35.78125 13.976562 35.746094 13.957031 35.589844 C 13.789062 35.390625 13.65625 34.574219 13.671875 34.332031 C 13.6875 34.089844 13.609375 34.058594 13.796875 34.222656 C 13.925781 34.335938 14.058594 34.660156 14.140625 34.796875 C 14.164062 34.835938 14.195312 34.839844 14.226562 34.808594 C 14.441406 34.546875 14.496094 34.289062 14.550781 33.957031 C 14.667969 33.21875 14.742188 32.46875 14.832031 31.730469 C 14.988281 30.402344 15.109375 29.082031 14.785156 27.769531 C 14.769531 27.703125 14.667969 27.730469 14.683594 27.796875 Z M 14.683594 27.796875 " fill-opacity="1" fill-rule="nonzero"/><path fill="#263151" d="M 13.003906 36.351562 C 13.058594 36.679688 13.0625 37.007812 13.015625 37.339844 C 12.996094 37.464844 12.941406 37.613281 12.816406 37.625 C 12.691406 37.636719 12.601562 37.484375 12.484375 37.425781 C 12.457031 37.558594 12.527344 37.691406 12.601562 37.804688 C 12.777344 38.070312 13 38.296875 13.261719 38.484375 C 13.289062 38.507812 13.332031 38.527344 13.359375 38.503906 C 13.371094 38.492188 13.378906 38.476562 13.382812 38.460938 C 13.554688 37.8125 13.613281 37.15625 13.554688 36.492188 " fill-opacity="1" fill-rule="nonzero"/><path fill="#263151" d="M 12.953125 36.363281 C 12.996094 36.632812 13.003906 36.90625 12.980469 37.175781 C 13.019531 37.441406 12.894531 37.535156 12.605469 37.445312 C 12.574219 37.421875 12.542969 37.402344 12.511719 37.382812 C 12.457031 37.351562 12.429688 37.367188 12.429688 37.429688 C 12.4375 37.742188 12.648438 37.992188 12.863281 38.210938 C 12.941406 38.289062 13.21875 38.632812 13.375 38.554688 C 13.535156 38.476562 13.539062 38.03125 13.5625 37.875 C 13.632812 37.414062 13.648438 36.953125 13.609375 36.488281 C 13.605469 36.421875 13.496094 36.421875 13.5 36.488281 C 13.542969 37.027344 13.550781 37.621094 13.402344 38.148438 L 13.367188 38.296875 C 13.335938 38.464844 13.273438 38.484375 13.1875 38.359375 C 13.085938 38.308594 12.964844 38.167969 12.890625 38.085938 C 12.796875 37.984375 12.597656 37.832031 12.628906 37.6875 C 12.671875 37.464844 12.519531 37.683594 12.699219 37.65625 C 12.847656 37.632812 12.898438 37.703125 13.003906 37.546875 C 13.210938 37.246094 13.105469 36.675781 13.058594 36.339844 C 13.050781 36.273438 12.945312 36.300781 12.957031 36.367188 Z M 12.953125 36.363281 " fill-opacity="1" fill-rule="nonzero"/><path fill="#263151" d="M 20.074219 25.269531 L 20.054688 24.527344 C 20.046875 24.464844 20.058594 24.402344 20.089844 24.347656 C 20.125 24.300781 20.171875 24.273438 20.230469 24.253906 C 21.167969 23.871094 22.121094 23.535156 23.09375 23.246094 C 23.132812 23.226562 23.171875 23.226562 23.210938 23.246094 C 23.25 23.269531 23.269531 23.304688 23.273438 23.347656 C 23.367188 23.644531 23.4375 23.949219 23.484375 24.261719 C 22.683594 24.671875 21.730469 24.683594 20.910156 25.050781 C 20.660156 25.160156 20.421875 25.304688 20.148438 25.359375 C 20.121094 25.371094 20.097656 25.367188 20.074219 25.351562 C 20.054688 25.328125 20.046875 25.304688 20.054688 25.273438 L 20.082031 24.894531 " fill-opacity="1" fill-rule="nonzero"/><path fill="#263151" d="M 20.128906 25.269531 C 20.113281 24.734375 20.195312 24.402344 20.714844 24.117188 C 20.996094 23.960938 21.355469 23.871094 21.664062 23.765625 C 21.960938 23.660156 22.3125 23.484375 22.625 23.441406 C 22.863281 23.308594 23.082031 23.355469 23.289062 23.582031 C 23.328125 23.734375 23.363281 23.886719 23.394531 24.039062 C 23.242188 24.589844 21.984375 24.648438 21.535156 24.773438 C 21.3125 24.835938 21.097656 24.910156 20.882812 25 C 20.578125 25.125 20.09375 25.46875 20.140625 24.886719 C 20.144531 24.820312 20.039062 24.820312 20.03125 24.886719 C 20.019531 25.050781 19.984375 25.207031 20.023438 25.363281 C 20.03125 25.390625 20.050781 25.402344 20.078125 25.402344 C 20.570312 25.449219 21.199219 24.972656 21.671875 24.847656 C 22.300781 24.6875 22.921875 24.582031 23.515625 24.300781 C 23.539062 24.289062 23.546875 24.269531 23.539062 24.242188 C 23.5 23.996094 23.476562 23.328125 23.21875 23.1875 C 22.984375 23.058594 22.109375 23.496094 21.878906 23.578125 C 21.386719 23.746094 20.613281 23.890625 20.207031 24.207031 C 19.878906 24.457031 20.015625 24.875 20.023438 25.265625 C 20.023438 25.335938 20.132812 25.335938 20.132812 25.265625 Z M 20.128906 25.269531 " fill-opacity="1" fill-rule="nonzero"/><path fill="#263151" d="M 20.007812 23.679688 C 20.148438 23.597656 20.292969 23.535156 20.449219 23.492188 C 21.324219 23.214844 22.199219 22.933594 23.078125 22.660156 C 23.007812 22.449219 22.910156 22.253906 22.789062 22.070312 C 21.925781 22.457031 21.066406 22.855469 20.210938 23.257812 C 20.128906 23.289062 20.0625 23.335938 20.007812 23.40625 C 19.960938 23.476562 19.96875 23.589844 20.042969 23.628906 " fill-opacity="1" fill-rule="nonzero"/><path fill="#263151" d="M 20.035156 23.726562 C 20.941406 23.234375 22.109375 23.019531 23.09375 22.710938 C 23.125 22.703125 23.140625 22.679688 23.128906 22.644531 C 23.050781 22.4375 22.953125 22.234375 22.835938 22.042969 C 22.816406 22.011719 22.792969 22.007812 22.761719 22.023438 C 21.972656 22.378906 21.179688 22.734375 20.398438 23.109375 C 20.15625 23.226562 19.800781 23.34375 19.996094 23.652344 C 20.03125 23.710938 20.125 23.65625 20.089844 23.597656 C 19.914062 23.320312 21.332031 22.792969 21.527344 22.703125 C 21.796875 22.578125 22.097656 22.382812 22.386719 22.308594 C 22.535156 22.1875 22.691406 22.179688 22.855469 22.285156 C 22.972656 22.542969 22.933594 22.6875 22.734375 22.710938 C 22.558594 22.84375 22.179688 22.886719 21.96875 22.953125 L 21.203125 23.199219 C 20.792969 23.328125 20.359375 23.429688 19.980469 23.632812 C 19.921875 23.667969 19.972656 23.757812 20.035156 23.726562 Z M 20.035156 23.726562 " fill-opacity="1" fill-rule="nonzero"/><path fill="#263151" d="M 41.390625 25.269531 L 41.410156 24.527344 C 41.425781 24.464844 41.417969 24.40625 41.382812 24.355469 C 41.347656 24.300781 41.300781 24.269531 41.238281 24.253906 C 40.300781 23.871094 39.34375 23.535156 38.371094 23.246094 C 38.339844 23.234375 38.304688 23.230469 38.269531 23.238281 C 38.226562 23.261719 38.203125 23.300781 38.195312 23.347656 C 38.097656 23.644531 38.027344 23.949219 37.980469 24.261719 C 38.78125 24.667969 39.734375 24.683594 40.554688 25.046875 C 40.808594 25.160156 41.046875 25.304688 41.316406 25.359375 C 41.34375 25.371094 41.367188 25.367188 41.394531 25.351562 C 41.414062 25.328125 41.421875 25.300781 41.414062 25.269531 L 41.382812 24.890625 " fill-opacity="1" fill-rule="nonzero"/><path fill="#263151" d="M 41.445312 25.269531 C 41.453125 24.949219 41.574219 24.492188 41.335938 24.253906 C 41.183594 24.101562 40.859375 24.046875 40.664062 23.96875 C 40.308594 23.832031 39.953125 23.703125 39.59375 23.578125 C 39.34375 23.496094 38.503906 23.0625 38.257812 23.1875 C 37.996094 23.324219 37.96875 24.007812 37.929688 24.246094 C 37.925781 24.269531 37.933594 24.292969 37.957031 24.304688 C 38.546875 24.578125 39.171875 24.6875 39.796875 24.851562 C 40.273438 24.976562 40.894531 25.453125 41.394531 25.40625 C 41.421875 25.40625 41.441406 25.394531 41.449219 25.367188 C 41.488281 25.207031 41.453125 25.050781 41.441406 24.890625 C 41.433594 24.824219 41.328125 24.824219 41.332031 24.890625 C 41.378906 25.472656 40.890625 25.125 40.585938 25 C 40.375 24.914062 40.15625 24.839844 39.9375 24.777344 C 39.488281 24.652344 38.230469 24.59375 38.074219 24.042969 C 38.105469 23.890625 38.140625 23.738281 38.179688 23.585938 C 38.386719 23.359375 38.605469 23.3125 38.84375 23.445312 C 39.15625 23.484375 39.507812 23.660156 39.804688 23.769531 C 40.113281 23.875 40.472656 23.964844 40.753906 24.121094 C 41.273438 24.40625 41.351562 24.738281 41.339844 25.273438 C 41.339844 25.308594 41.359375 25.328125 41.394531 25.328125 C 41.429688 25.328125 41.449219 25.308594 41.449219 25.273438 Z M 41.445312 25.269531 " fill-opacity="1" fill-rule="nonzero"/><path fill="#263151" d="M 41.457031 23.679688 C 41.320312 23.597656 41.171875 23.535156 41.015625 23.492188 C 40.140625 23.214844 39.265625 22.933594 38.386719 22.660156 C 38.460938 22.449219 38.554688 22.253906 38.675781 22.070312 C 39.539062 22.457031 40.398438 22.851562 41.253906 23.257812 C 41.335938 23.285156 41.402344 23.335938 41.457031 23.402344 C 41.503906 23.472656 41.5 23.585938 41.425781 23.625 " fill-opacity="1" fill-rule="nonzero"/><path fill="#263151" d="M 41.484375 23.632812 C 41.136719 23.445312 40.746094 23.351562 40.375 23.234375 L 39.496094 22.957031 C 39.285156 22.886719 38.90625 22.84375 38.730469 22.710938 C 38.53125 22.6875 38.492188 22.542969 38.609375 22.285156 C 38.773438 22.179688 38.933594 22.1875 39.082031 22.308594 C 39.332031 22.375 39.59375 22.542969 39.832031 22.652344 C 40.019531 22.738281 41.550781 23.320312 41.378906 23.597656 C 41.339844 23.65625 41.433594 23.710938 41.46875 23.652344 C 41.664062 23.347656 41.308594 23.222656 41.066406 23.109375 C 40.285156 22.734375 39.496094 22.378906 38.703125 22.023438 C 38.671875 22.003906 38.648438 22.011719 38.628906 22.042969 C 38.515625 22.234375 38.417969 22.4375 38.335938 22.644531 C 38.328125 22.679688 38.339844 22.703125 38.375 22.710938 C 39.355469 23.019531 40.527344 23.234375 41.429688 23.726562 C 41.492188 23.757812 41.546875 23.667969 41.484375 23.632812 Z M 41.484375 23.632812 " fill-opacity="1" fill-rule="nonzero"/><path fill="#ffffff" d="M 11.566406 35.25 C 11.539062 33.40625 11.984375 31.683594 12.902344 30.082031 C 13.121094 29.699219 13.367188 29.328125 13.523438 28.917969 C 13.691406 28.472656 13.753906 27.996094 13.753906 27.523438 C 12.609375 28.191406 11.777344 29.324219 11.390625 30.582031 C 11 31.839844 11.039062 33.207031 11.398438 34.472656 " fill-opacity="1" fill-rule="nonzero"/><g clip-path="url(#267ec9dad8)"><path fill="#ffffff" d="M 11.742188 35.25 C 11.726562 33.734375 12.035156 32.285156 12.671875 30.90625 C 12.933594 30.339844 13.296875 29.828125 13.5625 29.265625 C 13.828125 28.703125 13.917969 28.128906 13.933594 27.519531 C 13.929688 27.453125 13.902344 27.402344 13.84375 27.371094 C 13.785156 27.335938 13.726562 27.335938 13.667969 27.371094 C 11.191406 28.878906 10.515625 31.863281 11.226562 34.515625 C 11.285156 34.730469 11.625 34.640625 11.566406 34.421875 C 10.898438 31.925781 11.507812 29.09375 13.84375 27.671875 L 13.582031 27.519531 C 13.546875 28.984375 12.621094 30.03125 12.101562 31.347656 C 11.613281 32.601562 11.375 33.902344 11.390625 35.25 C 11.390625 35.472656 11.746094 35.472656 11.742188 35.25 Z M 11.742188 35.25 " fill-opacity="1" fill-rule="nonzero"/></g><path fill="#ffffff" d="M 49.796875 35.25 C 49.824219 33.40625 49.378906 31.683594 48.460938 30.082031 C 48.242188 29.699219 47.996094 29.328125 47.839844 28.917969 C 47.671875 28.472656 47.609375 27.996094 47.609375 27.523438 C 48.75 28.191406 49.585938 29.324219 49.972656 30.582031 C 50.363281 31.839844 50.324219 33.207031 49.964844 34.472656 " fill-opacity="1" fill-rule="nonzero"/><path fill="#ffffff" d="M 49.621094 35.25 C 49.636719 33.734375 49.328125 32.285156 48.691406 30.90625 C 48.429688 30.339844 48.066406 29.828125 47.800781 29.265625 C 47.535156 28.703125 47.445312 28.128906 47.429688 27.519531 C 47.429688 27.453125 47.460938 27.402344 47.519531 27.371094 C 47.578125 27.335938 47.636719 27.335938 47.695312 27.371094 C 50.167969 28.878906 50.847656 31.863281 50.136719 34.515625 C 50.078125 34.730469 49.738281 34.640625 49.792969 34.421875 C 50.464844 31.925781 49.855469 29.09375 47.519531 27.667969 L 47.78125 27.519531 C 47.816406 28.980469 48.742188 30.03125 49.261719 31.34375 C 49.75 32.601562 49.984375 33.902344 49.972656 35.246094 C 49.972656 35.472656 49.617188 35.472656 49.621094 35.246094 Z M 49.621094 35.25 " fill-opacity="1" fill-rule="nonzero"/><path fill="#ffffff" d="M 18.226562 24.386719 C 19.152344 23.238281 20.28125 22.339844 21.617188 21.691406 C 21.839844 21.585938 22.070312 21.484375 22.296875 21.382812 L 23.789062 20.726562 L 23.5625 20.214844 C 23.507812 20.085938 23.429688 19.933594 23.285156 19.910156 C 23.195312 19.890625 23.105469 19.929688 23.023438 19.964844 C 21.570312 20.609375 20.230469 21.429688 18.992188 22.421875 C 18.839844 22.539062 18.699219 22.667969 18.570312 22.8125 C 18.28125 23.15625 18.148438 23.550781 18.175781 23.996094 " fill-opacity="1" fill-rule="nonzero"/><path fill="#ffffff" d="M 18.351562 24.507812 C 19.042969 23.65625 19.855469 22.933594 20.789062 22.34375 C 21.753906 21.742188 22.835938 21.332031 23.875 20.878906 C 23.972656 20.835938 23.976562 20.714844 23.941406 20.636719 C 23.734375 20.175781 23.589844 19.585938 22.976562 19.796875 C 22.230469 20.050781 21.503906 20.507812 20.835938 20.914062 C 19.699219 21.605469 17.984375 22.488281 18 23.996094 C 18 24.21875 18.355469 24.21875 18.351562 23.996094 C 18.339844 22.730469 19.800781 21.980469 20.753906 21.375 C 21.214844 21.082031 21.691406 20.808594 22.183594 20.558594 C 22.390625 20.453125 22.691406 20.230469 22.921875 20.199219 C 23.464844 20.121094 23.480469 20.464844 23.636719 20.816406 L 23.699219 20.578125 C 22.601562 21.058594 21.460938 21.488281 20.449219 22.148438 C 19.558594 22.730469 18.773438 23.433594 18.101562 24.261719 C 17.960938 24.433594 18.210938 24.679688 18.351562 24.507812 Z M 18.351562 24.507812 " fill-opacity="1" fill-rule="nonzero"/><path fill="#ffffff" d="M 43.164062 24.386719 C 42.238281 23.238281 41.109375 22.339844 39.777344 21.695312 C 39.550781 21.585938 39.324219 21.484375 39.09375 21.382812 L 37.601562 20.730469 L 37.828125 20.21875 C 37.886719 20.085938 37.964844 19.9375 38.105469 19.910156 C 38.195312 19.894531 38.285156 19.929688 38.371094 19.964844 C 39.820312 20.613281 41.164062 21.433594 42.398438 22.425781 C 42.554688 22.542969 42.695312 22.671875 42.820312 22.8125 C 43.113281 23.15625 43.242188 23.550781 43.214844 24 " fill-opacity="1" fill-rule="nonzero"/><path fill="#ffffff" d="M 43.039062 24.507812 C 42.347656 23.65625 41.535156 22.933594 40.601562 22.34375 C 39.636719 21.742188 38.554688 21.332031 37.515625 20.878906 C 37.421875 20.835938 37.417969 20.714844 37.449219 20.636719 C 37.65625 20.175781 37.800781 19.585938 38.417969 19.796875 C 39.160156 20.050781 39.890625 20.507812 40.554688 20.914062 C 41.691406 21.605469 43.40625 22.488281 43.390625 23.996094 C 43.390625 24.21875 43.039062 24.21875 43.039062 23.996094 C 43.050781 22.730469 41.589844 21.980469 40.636719 21.375 C 40.175781 21.082031 39.699219 20.808594 39.210938 20.558594 C 39 20.453125 38.699219 20.230469 38.46875 20.199219 C 37.925781 20.121094 37.910156 20.464844 37.753906 20.816406 L 37.691406 20.578125 C 38.792969 21.058594 39.929688 21.488281 40.941406 22.148438 C 41.832031 22.730469 42.617188 23.433594 43.289062 24.261719 C 43.429688 24.433594 43.179688 24.679688 43.039062 24.507812 Z M 43.039062 24.507812 " fill-opacity="1" fill-rule="nonzero"/><path fill="#ffffff" d="M 37.566406 19.5625 C 35.699219 19.089844 33.8125 18.746094 31.898438 18.527344 C 31.871094 18.460938 31.832031 18.410156 31.769531 18.375 C 31.683594 18.328125 31.578125 18.332031 31.476562 18.335938 C 31.203125 18.355469 30.925781 18.378906 30.652344 18.402344 C 30.375 18.378906 30.101562 18.355469 29.828125 18.335938 C 29.726562 18.332031 29.621094 18.328125 29.53125 18.375 C 29.472656 18.410156 29.429688 18.460938 29.40625 18.527344 C 27.492188 18.746094 25.601562 19.089844 23.734375 19.5625 L 23.464844 19.636719 C 23.8125 20.972656 24.617188 22.144531 25.144531 23.425781 C 25.578125 24.484375 25.824219 25.613281 26.167969 26.707031 C 26.511719 27.800781 26.976562 28.886719 27.769531 29.722656 C 28.335938 30.3125 29.007812 30.730469 29.792969 30.984375 C 30.054688 31.066406 30.324219 31.128906 30.597656 31.167969 C 30.613281 31.171875 30.628906 31.171875 30.640625 31.167969 C 30.945312 31.128906 31.246094 31.0625 31.539062 30.972656 C 32.308594 30.722656 32.972656 30.304688 33.53125 29.722656 C 34.324219 28.886719 34.789062 27.800781 35.132812 26.707031 C 35.476562 25.613281 35.71875 24.484375 36.15625 23.425781 C 36.683594 22.144531 37.488281 20.972656 37.835938 19.636719 Z M 37.566406 19.5625 " fill-opacity="1" fill-rule="nonzero"/><path fill="#263151" d="M 20.148438 16.945312 C 19.386719 17.285156 18.601562 17.589844 17.902344 18.042969 C 17.273438 18.457031 16.722656 18.972656 16.175781 19.484375 C 15.773438 19.863281 16.382812 20.464844 16.785156 20.085938 C 17.335938 19.570312 17.886719 19.042969 18.539062 18.652344 C 19.191406 18.261719 19.898438 17.988281 20.585938 17.679688 C 21.089844 17.457031 20.652344 16.722656 20.148438 16.945312 Z M 20.148438 16.945312 " fill-opacity="1" fill-rule="nonzero"/><path fill="#263151" d="M 13.433594 18.488281 C 14.355469 17.332031 15.441406 16.351562 16.6875 15.546875 C 17.9375 14.742188 19.285156 14.15625 20.726562 13.792969 C 21.265625 13.65625 21.039062 12.832031 20.5 12.96875 C 18.984375 13.351562 17.566406 13.964844 16.253906 14.804688 C 14.941406 15.648438 13.796875 16.675781 12.824219 17.886719 C 12.488281 18.3125 13.089844 18.917969 13.433594 18.488281 Z M 13.433594 18.488281 " fill-opacity="1" fill-rule="nonzero"/><g clip-path="url(#3c68046112)"><path fill="#263151" d="M 50.550781 24.886719 C 50.851562 24.476562 50.835938 23.964844 50.621094 23.542969 C 50.609375 23.5 50.59375 23.460938 50.570312 23.421875 C 50.523438 23.359375 50.472656 23.296875 50.417969 23.238281 C 50.277344 23.066406 50.101562 22.933594 49.894531 22.84375 C 49.851562 22.824219 49.804688 22.8125 49.757812 22.808594 C 49.519531 22.726562 49.277344 22.714844 49.035156 22.765625 C 48.789062 22.820312 48.574219 22.929688 48.390625 23.097656 C 47.738281 23.683594 47.707031 24.804688 48.429688 25.339844 C 48.441406 25.34375 48.449219 25.351562 48.460938 25.359375 C 48.308594 25.921875 48.144531 26.484375 48.019531 27.058594 C 47.851562 26.976562 47.679688 26.917969 47.496094 26.882812 C 47.101562 26.804688 46.734375 26.871094 46.390625 27.078125 C 45.789062 25.527344 44.738281 24.148438 43.511719 22.972656 C 43.492188 22.953125 43.472656 22.933594 43.453125 22.917969 C 42.871094 22.371094 42.253906 21.859375 41.605469 21.390625 C 38.539062 19.179688 34.824219 18.074219 31.054688 17.953125 C 31.085938 17.476562 31.09375 16.996094 31.070312 16.515625 C 31.070312 16.507812 31.070312 16.5 31.066406 16.492188 C 31.289062 16.449219 31.496094 16.375 31.695312 16.269531 C 32.714844 15.726562 33.007812 14.375 32.480469 13.390625 C 31.925781 12.355469 30.519531 11.882812 29.523438 12.617188 C 29.519531 12.621094 29.515625 12.625 29.511719 12.628906 C 29.304688 12.773438 29.125 12.949219 28.976562 13.152344 C 28.828125 13.359375 28.714844 13.582031 28.644531 13.820312 C 28.570312 14.0625 28.539062 14.308594 28.550781 14.5625 C 28.5625 14.8125 28.617188 15.054688 28.710938 15.289062 C 28.839844 15.605469 29.039062 15.867188 29.304688 16.082031 C 29.570312 16.296875 29.871094 16.4375 30.210938 16.496094 C 30.210938 16.503906 30.210938 16.511719 30.210938 16.515625 C 30.230469 16.996094 30.226562 17.472656 30.191406 17.953125 C 26.449219 18.085938 22.765625 19.191406 19.722656 21.390625 C 19.074219 21.855469 18.457031 22.367188 17.875 22.914062 C 17.851562 22.929688 17.832031 22.949219 17.8125 22.972656 C 16.589844 24.144531 15.542969 25.523438 14.9375 27.070312 C 14.746094 26.953125 14.535156 26.882812 14.308594 26.859375 C 13.957031 26.828125 13.621094 26.894531 13.308594 27.058594 C 13.179688 26.484375 13.015625 25.921875 12.867188 25.351562 C 12.878906 25.347656 12.886719 25.339844 12.898438 25.332031 C 13.628906 24.796875 13.578125 23.6875 12.933594 23.097656 C 12.753906 22.925781 12.539062 22.816406 12.292969 22.765625 C 12.046875 22.714844 11.804688 22.726562 11.570312 22.8125 C 11.519531 22.816406 11.472656 22.828125 11.429688 22.84375 C 11.222656 22.9375 11.046875 23.070312 10.902344 23.242188 C 10.851562 23.300781 10.800781 23.363281 10.757812 23.425781 C 10.734375 23.464844 10.714844 23.503906 10.703125 23.542969 C 10.488281 23.964844 10.472656 24.480469 10.777344 24.886719 C 11.085938 25.304688 11.554688 25.582031 12.039062 25.601562 C 12.21875 26.273438 12.417969 26.945312 12.550781 27.628906 C 12.464844 27.71875 12.382812 27.8125 12.304688 27.910156 C 11.230469 29.273438 10.835938 31.171875 10.78125 32.875 C 10.75 33.96875 10.878906 35.042969 11.171875 36.097656 C 11.417969 36.976562 11.832031 38.421875 12.621094 38.972656 C 13.234375 39.394531 13.96875 39.429688 14.625 39.15625 C 15.042969 41.105469 16.058594 42.972656 17.25 44.539062 C 19.0625 46.9375 21.492188 48.808594 24.3125 49.898438 C 26.324219 50.671875 28.476562 51.003906 30.628906 51.015625 C 30.640625 51.015625 30.648438 51.015625 30.660156 51.011719 C 30.671875 51.007812 30.679688 51.015625 30.695312 51.015625 C 34.253906 50.996094 37.773438 50.03125 40.652344 47.917969 C 42.878906 46.289062 44.585938 44.234375 45.769531 41.757812 C 46.160156 40.929688 46.492188 40.066406 46.691406 39.175781 C 47.144531 39.347656 47.691406 39.382812 48.0625 39.28125 C 49.121094 38.984375 49.519531 37.871094 49.875 36.941406 C 50.273438 35.886719 50.492188 34.800781 50.539062 33.679688 C 50.617188 31.875 50.296875 29.871094 49.3125 28.316406 C 49.15625 28.070312 48.980469 27.835938 48.777344 27.625 C 48.90625 26.941406 49.105469 26.269531 49.289062 25.597656 C 49.769531 25.578125 50.242188 25.304688 50.550781 24.886719 Z M 49.480469 23.589844 C 49.765625 23.71875 50.023438 23.996094 49.882812 24.335938 C 49.757812 24.625 49.332031 24.851562 49.035156 24.707031 C 48.390625 24.398438 48.949219 23.460938 49.480469 23.589844 Z M 29.613281 15.175781 C 29.273438 14.65625 29.386719 13.820312 29.867188 13.40625 C 29.898438 13.390625 29.929688 13.375 29.957031 13.351562 C 31.257812 12.394531 32.660156 14.570312 31.414062 15.445312 C 30.855469 15.835938 29.992188 15.761719 29.613281 15.175781 Z M 11.460938 24.378906 C 11.28125 24.035156 11.546875 23.726562 11.84375 23.589844 C 12.378906 23.464844 12.933594 24.402344 12.289062 24.707031 C 12.003906 24.84375 11.601562 24.648438 11.460938 24.378906 Z M 12.363281 36.921875 C 11.582031 35.042969 11.429688 32.894531 11.898438 30.917969 C 12.070312 30.179688 12.324219 29.453125 12.722656 28.804688 C 12.871094 28.554688 13.046875 28.324219 13.257812 28.121094 C 13.296875 28.089844 13.335938 28.058594 13.378906 28.03125 C 13.210938 28.664062 13.140625 30.332031 13.332031 30.359375 C 13.5625 30.386719 14.132812 28.46875 14.355469 27.746094 C 14.535156 27.761719 14.679688 27.835938 14.757812 27.984375 C 14.769531 28.117188 14.785156 28.25 14.796875 28.386719 C 14.789062 28.453125 14.792969 28.515625 14.816406 28.582031 C 15 30.59375 15.082031 32.621094 14.988281 34.644531 C 14.964844 35.199219 14.925781 35.757812 14.867188 36.3125 C 14.832031 36.652344 14.789062 36.996094 14.734375 37.335938 C 14.703125 37.550781 14.707031 37.976562 14.582031 38.160156 C 14.484375 38.304688 14.242188 38.414062 13.992188 38.460938 C 13.730469 37.46875 13.355469 35.035156 13.140625 35.035156 C 12.921875 35.035156 12.835938 37.273438 13.03125 38.167969 C 12.710938 37.828125 12.519531 37.296875 12.363281 36.921875 Z M 36.695312 49.109375 C 34.777344 49.835938 32.746094 50.152344 30.695312 50.164062 C 30.683594 50.164062 30.675781 50.167969 30.664062 50.167969 C 30.652344 50.167969 30.640625 50.164062 30.628906 50.164062 C 27.207031 50.144531 23.871094 49.214844 21.105469 47.183594 C 19.03125 45.660156 17.355469 43.589844 16.273438 41.273438 C 15.867188 40.402344 15.542969 39.480469 15.382812 38.53125 C 15.683594 37.925781 15.65625 36.972656 15.714844 36.425781 C 16.027344 33.558594 15.902344 30.640625 15.597656 27.777344 C 16.011719 26.5 16.773438 25.332031 17.703125 24.304688 C 17.660156 27.804688 18.273438 35.1875 18.480469 35.195312 C 18.707031 35.207031 18.503906 27.214844 18.578125 23.417969 C 19.960938 22.140625 21.519531 21.121094 23.25 20.363281 C 24.125 22.855469 26.398438 28.097656 26.605469 28.050781 C 26.820312 28 24.933594 22.5625 24.046875 20.035156 C 26.144531 19.230469 28.390625 18.828125 30.664062 18.796875 C 32.9375 18.832031 35.183594 19.234375 37.28125 20.035156 C 36.398438 22.558594 34.5 27.988281 34.707031 28.042969 C 34.914062 28.101562 37.199219 22.851562 38.078125 20.359375 C 39.808594 21.117188 41.367188 22.136719 42.75 23.417969 C 42.824219 27.210938 42.585938 35.179688 42.789062 35.195312 C 43.011719 35.207031 43.667969 27.800781 43.625 24.300781 C 44.554688 25.328125 45.316406 26.5 45.726562 27.777344 C 45.457031 30.332031 45.339844 32.917969 45.527344 35.484375 C 45.566406 36.03125 45.621094 36.574219 45.695312 37.113281 C 45.753906 37.542969 45.765625 38.101562 45.949219 38.519531 C 45.160156 43.25 41.101562 47.4375 36.695312 49.109375 Z M 49.425781 30.917969 C 49.894531 32.894531 49.742188 35.042969 48.960938 36.921875 C 48.808594 37.292969 48.609375 37.824219 48.292969 38.164062 C 48.492188 37.269531 48.367188 35.015625 48.136719 35.039062 C 47.941406 35.058594 47.59375 37.46875 47.335938 38.460938 C 47.085938 38.414062 46.839844 38.304688 46.742188 38.160156 C 46.488281 37.78125 46.519531 36.863281 46.46875 36.425781 C 46.40625 35.835938 46.363281 35.238281 46.335938 34.644531 C 46.246094 32.621094 46.324219 30.59375 46.507812 28.582031 C 46.53125 28.515625 46.535156 28.453125 46.527344 28.386719 C 46.539062 28.25 46.554688 28.117188 46.566406 27.984375 C 46.640625 27.835938 46.789062 27.761719 46.96875 27.746094 C 47.191406 28.46875 47.761719 30.386719 47.992188 30.359375 C 48.183594 30.332031 48.113281 28.664062 47.945312 28.03125 C 47.988281 28.058594 48.027344 28.089844 48.066406 28.121094 C 48.277344 28.324219 48.457031 28.554688 48.601562 28.804688 C 49 29.453125 49.253906 30.179688 49.425781 30.917969 Z M 49.425781 30.917969 " fill-opacity="1" fill-rule="nonzero"/></g><path fill="#263151" d="M 41.179688 16.945312 C 40.675781 16.722656 40.238281 17.457031 40.746094 17.679688 C 41.429688 17.988281 42.144531 18.265625 42.789062 18.652344 C 43.433594 19.039062 43.992188 19.570312 44.542969 20.085938 C 44.945312 20.460938 45.554688 19.863281 45.152344 19.484375 C 44.609375 18.972656 44.054688 18.457031 43.425781 18.042969 C 42.726562 17.589844 41.933594 17.285156 41.179688 16.945312 Z M 41.179688 16.945312 " fill-opacity="1" fill-rule="nonzero"/><path fill="#263151" d="M 40.597656 13.792969 C 42.042969 14.15625 43.386719 14.742188 44.636719 15.546875 C 45.886719 16.351562 46.96875 17.332031 47.890625 18.488281 C 48.234375 18.917969 48.84375 18.3125 48.5 17.886719 C 47.527344 16.675781 46.386719 15.648438 45.074219 14.804688 C 43.757812 13.964844 42.34375 13.351562 40.828125 12.96875 C 40.289062 12.832031 40.058594 13.65625 40.597656 13.792969 Z M 40.597656 13.792969 " fill-opacity="1" fill-rule="nonzero"/><path fill="#9dfff2" d="M 25.878906 34.703125 C 25.878906 35.167969 25.816406 35.617188 25.699219 36.046875 C 25.578125 36.480469 25.40625 36.859375 25.1875 37.1875 C 24.964844 37.519531 24.710938 37.773438 24.421875 37.949219 C 24.132812 38.128906 23.832031 38.21875 23.519531 38.21875 C 23.207031 38.21875 22.90625 38.128906 22.617188 37.949219 C 22.328125 37.773438 22.070312 37.519531 21.851562 37.1875 C 21.628906 36.859375 21.460938 36.480469 21.339844 36.046875 C 21.21875 35.617188 21.160156 35.167969 21.160156 34.703125 C 21.160156 34.238281 21.21875 33.789062 21.339844 33.359375 C 21.460938 32.925781 21.628906 32.546875 21.851562 32.21875 C 22.070312 31.886719 22.328125 31.632812 22.617188 31.457031 C 22.90625 31.277344 23.207031 31.1875 23.519531 31.1875 C 23.832031 31.1875 24.132812 31.277344 24.421875 31.457031 C 24.710938 31.632812 24.964844 31.886719 25.1875 32.21875 C 25.40625 32.546875 25.578125 32.925781 25.699219 33.359375 C 25.816406 33.789062 25.878906 34.238281 25.878906 34.703125 Z M 25.878906 34.703125 " fill-opacity="1" fill-rule="nonzero"/><path fill="#9dfff2" d="M 40.164062 34.703125 C 40.164062 35.167969 40.105469 35.617188 39.984375 36.046875 C 39.867188 36.480469 39.695312 36.859375 39.476562 37.1875 C 39.253906 37.519531 39 37.773438 38.710938 37.949219 C 38.421875 38.128906 38.121094 38.21875 37.808594 38.21875 C 37.492188 38.21875 37.191406 38.128906 36.902344 37.949219 C 36.613281 37.773438 36.359375 37.519531 36.140625 37.1875 C 35.917969 36.859375 35.746094 36.480469 35.628906 36.046875 C 35.507812 35.617188 35.449219 35.167969 35.449219 34.703125 C 35.449219 34.238281 35.507812 33.789062 35.628906 33.359375 C 35.746094 32.925781 35.917969 32.546875 36.140625 32.21875 C 36.359375 31.886719 36.613281 31.632812 36.902344 31.457031 C 37.191406 31.277344 37.492188 31.1875 37.808594 31.1875 C 38.121094 31.1875 38.421875 31.277344 38.710938 31.457031 C 39 31.632812 39.253906 31.886719 39.476562 32.21875 C 39.695312 32.546875 39.867188 32.925781 39.984375 33.359375 C 40.105469 33.789062 40.164062 34.238281 40.164062 34.703125 Z M 40.164062 34.703125 " fill-opacity="1" fill-rule="nonzero"/><path fill="#b3b3b3" d="M 33.816406 20.632812 C 33.855469 20.574219 33.867188 20.511719 33.851562 20.445312 C 33.832031 20.378906 33.789062 20.328125 33.726562 20.296875 C 33.3125 20.09375 32.808594 20.050781 32.363281 19.992188 C 31.59375 19.898438 30.820312 19.875 30.042969 19.929688 C 29.015625 19.988281 28 20.148438 26.988281 20.339844 C 26.84375 20.367188 26.652344 20.410156 26.449219 20.453125 C 26.332031 20.480469 26.222656 20.53125 26.128906 20.605469 C 26.03125 20.679688 25.953125 20.769531 25.898438 20.875 C 25.84375 20.984375 25.8125 21.097656 25.808594 21.21875 C 25.804688 21.339844 25.828125 21.453125 25.875 21.566406 C 25.914062 21.660156 25.953125 21.75 25.992188 21.839844 C 26.597656 23.304688 26.988281 24.808594 27.328125 26.382812 C 27.589844 27.609375 28.113281 28.984375 29.328125 29.484375 C 29.386719 29.511719 29.433594 29.496094 29.472656 29.445312 C 29.507812 29.390625 29.503906 29.34375 29.460938 29.296875 C 29.054688 28.886719 28.445312 28.054688 28.035156 26.335938 C 27.863281 25.65625 27.699219 24.972656 27.550781 24.285156 C 27.523438 24.144531 27.261719 23.050781 27.210938 22.792969 C 27.1875 22.527344 27.210938 22.308594 27.339844 22.21875 C 27.402344 22.179688 27.464844 22.152344 27.535156 22.132812 C 27.589844 22.125 27.644531 22.109375 27.699219 22.097656 C 29.132812 21.75 30.074219 21.746094 31.710938 21.757812 C 32.160156 21.761719 32.636719 21.832031 33.019531 21.554688 C 33.300781 21.351562 33.632812 20.90625 33.816406 20.632812 Z M 33.816406 20.632812 " fill-opacity="1" fill-rule="nonzero"/><path fill="#b3b3b3" d="M 32.335938 22.804688 C 31.53125 22.667969 30.722656 22.640625 29.910156 22.722656 C 29.523438 22.753906 28.457031 22.832031 28.191406 23.15625 C 28.035156 23.34375 28.300781 24.351562 28.539062 24.753906 C 28.613281 24.890625 28.742188 24.988281 28.789062 24.996094 C 29.003906 24.996094 28.847656 24.25 29.777344 23.863281 C 30.1875 23.703125 31.761719 23.652344 32.625 23.730469 C 32.871094 23.753906 33.640625 23.800781 33.511719 23.308594 C 33.429688 23.015625 32.570312 22.847656 32.335938 22.804688 Z M 32.335938 22.804688 " fill-opacity="1" fill-rule="nonzero"/></svg>